<svg width="90" height="84" viewBox="0 0 90 84" fill="none" xmlns="http://www.w3.org/2000/svg">
<path d="M70 69.9375V64.9686L83.5844 69.4967L86.875 70.5936V67.125V39V35.5314L83.5844 36.6283L70 41.1564V36.1875C70 34.7785 69.4403 33.4273 68.444 32.431C67.4477 31.4347 66.0965 30.875 64.6875 30.875H59.671C62.6851 27.7839 64.375 23.6353 64.375 19.3125C64.375 14.9199 62.63 10.7071 59.524 7.60104C56.4179 4.49497 52.2051 2.75 47.8125 2.75C43.4199 2.75 39.2071 4.49497 36.101 7.60104C34.5982 9.10386 33.414 10.8657 32.5919 12.7817C32.4738 12.6542 32.3531 12.5287 32.2299 12.4055C30.9532 11.1281 29.4374 10.1147 27.769 9.42319C26.1006 8.73163 24.3123 8.37545 22.5063 8.375C20.7002 8.37455 18.9118 8.72983 17.243 9.42056C15.5743 10.1113 14.0579 11.1239 12.7805 12.4007C11.5032 13.6774 10.4897 15.1933 9.79819 16.8617C9.10663 18.5301 8.75045 20.3183 8.75 22.1244C8.7492 25.3307 9.86806 28.4218 11.8902 30.875H8.4375C7.02854 30.875 5.67728 31.4347 4.68099 32.431C3.68471 33.4273 3.125 34.7785 3.125 36.1875V69.9375C3.125 71.3465 3.6847 72.6977 4.68099 73.694C5.67729 74.6903 7.02855 75.25 8.4375 75.25H64.6875C66.0965 75.25 67.4477 74.6903 68.444 73.694C69.4403 72.6977 70 71.3465 70 69.9375ZM34.3991 29.0285C34.8691 29.6773 35.3882 30.2948 35.954 30.875H33.1154C33.5951 30.2931 34.024 29.6752 34.3991 29.0285ZM48.125 64.625H19.375V64H48.125V64.625ZM43.6163 23.5115C42.5019 22.3979 41.8755 20.8871 41.875 19.3117C41.8745 17.7362 42.4998 16.225 43.6135 15.1107C44.7271 13.9963 46.2379 13.3699 47.8133 13.3694C49.3888 13.3688 50.9 13.9942 52.0143 15.1079C53.1287 16.2215 53.7551 17.7322 53.7556 19.3077C53.7562 20.8832 53.1308 22.3943 52.0172 23.5087C50.9035 24.6231 49.3928 25.2495 47.8173 25.25C46.2418 25.2505 44.7307 24.6252 43.6163 23.5115ZM20.2903 24.3347C19.7042 23.7487 19.375 22.9538 19.375 22.125C19.375 21.2962 19.7042 20.5013 20.2903 19.9153C20.8763 19.3292 21.6712 19 22.5 19C23.3288 19 24.1237 19.3292 24.7097 19.9153C25.2958 20.5013 25.625 21.2962 25.625 22.125C25.625 22.9538 25.2958 23.7487 24.7097 24.3347C24.1237 24.9208 23.3288 25.25 22.5 25.25C21.6712 25.25 20.8763 24.9208 20.2903 24.3347Z" stroke="#F8CA02" stroke-width="5"/>
</svg>
