<svg width="70" height="70" viewBox="0 0 70 70" fill="none" xmlns="http://www.w3.org/2000/svg">
<rect width="70" height="70" rx="16" fill="url(#paint0_radial_424_3509)"/>
<rect width="70" height="70" rx="16" fill="url(#paint1_radial_424_3509)"/>
<path d="M52.7324 22.8139L52.1146 22.3887L52.7324 22.8139C53.0618 22.3354 53.2419 21.7699 53.2499 21.1889L53.25 21.189V21.1786V21.1187H53.25L53.25 21.1118C53.243 20.3447 52.9351 19.6109 52.3926 19.0685C51.8505 18.5264 51.1174 18.2186 50.3509 18.2112C49.7706 18.2036 49.201 18.3681 48.714 18.684C48.2266 19.0001 47.8439 19.4537 47.6142 19.9874C47.3846 20.521 47.3183 21.1108 47.4239 21.6821C47.5294 22.2534 47.802 22.7805 48.2072 23.1969C48.6123 23.6133 49.1318 23.9002 49.7 24.0214C50.2682 24.1425 50.8596 24.0925 51.3994 23.8775C51.9391 23.6626 52.403 23.2925 52.7324 22.8139Z" stroke="white" stroke-width="1.5" stroke-linecap="round" stroke-linejoin="round"/>
<path d="M35.0013 24.7891C32.9823 24.7891 31.0086 25.3878 29.3299 26.5095C27.6511 27.6312 26.3427 29.2255 25.57 31.0908C24.7974 32.9562 24.5952 35.0087 24.9891 36.9889C25.383 38.9692 26.3553 40.7881 27.7829 42.2158C29.2106 43.6434 31.0295 44.6157 33.0098 45.0096C34.99 45.4035 37.0425 45.2013 38.9079 44.4287C40.7732 43.656 42.3675 42.3476 43.4892 40.6688C44.6109 38.9901 45.2096 37.0164 45.2096 34.9974C45.2096 32.29 44.1341 29.6934 42.2197 27.779C40.3053 25.8646 37.7087 24.7891 35.0013 24.7891Z" stroke="white" stroke-width="2" stroke-linecap="round" stroke-linejoin="round"/>
<defs>
<radialGradient id="paint0_radial_424_3509" cx="0" cy="0" r="1" gradientUnits="userSpaceOnUse" gradientTransform="translate(18.5937 75.3914) rotate(-90) scale(69.3752 64.5244)">
<stop stop-color="#FFDD55"/>
<stop offset="0.1" stop-color="#FFDD55"/>
<stop offset="0.5" stop-color="#FF543E"/>
<stop offset="1" stop-color="#C837AB"/>
</radialGradient>
<radialGradient id="paint1_radial_424_3509" cx="0" cy="0" r="1" gradientUnits="userSpaceOnUse" gradientTransform="translate(-11.7253 5.04246) rotate(78.681) scale(31.0111 127.829)">
<stop stop-color="#3771C8"/>
<stop offset="0.128" stop-color="#3771C8"/>
<stop offset="1" stop-color="#6600FF" stop-opacity="0"/>
</radialGradient>
</defs>
</svg>
