<svg width="30" height="30" viewBox="0 0 30 30" fill="none" xmlns="http://www.w3.org/2000/svg">
<path d="M15 1C9.47937 1 5 5.03188 5 10C5 18 15 29 15 29C15 29 25 18 25 10C25 5.03188 20.5206 1 15 1ZM15 15C14.2089 15 13.4355 14.7654 12.7777 14.3259C12.1199 13.8864 11.6072 13.2616 11.3045 12.5307C11.0017 11.7998 10.9225 10.9956 11.0769 10.2196C11.2312 9.44372 11.6122 8.73098 12.1716 8.17157C12.731 7.61216 13.4437 7.2312 14.2196 7.07686C14.9956 6.92252 15.7998 7.00173 16.5307 7.30448C17.2616 7.60723 17.8864 8.11992 18.3259 8.77772C18.7654 9.43552 19 10.2089 19 11C18.9988 12.0605 18.577 13.0773 17.8271 13.8271C17.0773 14.577 16.0605 14.9988 15 15Z" fill="#F8CA02"/>
</svg>
