<svg width="187" height="29" viewBox="0 0 187 29" fill="none" xmlns="http://www.w3.org/2000/svg">
<path d="M100.04 4.817V10.1241H98.985V6.17171L97.5085 10.1241H96.3835L94.893 6.12981V10.1241H93.8383V4.817H95.4554L96.946 8.83923L98.4507 4.817H100.04Z" fill="white"/>
<path d="M101.432 5.37565V4.48182H102.529V5.37565H101.432ZM101.474 10.1241V5.93429H102.487V10.1241H101.474Z" fill="white"/>
<path d="M106.621 5.93429H107.633V10.1241H106.621V8.44818H104.793V10.1241H103.78V5.93429H104.793V7.52642H106.621V5.93429Z" fill="white"/>
<path d="M108.871 5.37565V4.48182H109.968V5.37565H108.871ZM108.913 10.1241V5.93429H109.925V10.1241H108.913Z" fill="white"/>
<path d="M113.075 10.1939C111.796 10.1939 110.924 9.32804 110.924 8.0292C110.924 6.73035 111.796 5.86446 113.075 5.86446C114.017 5.86446 114.763 6.32534 115.002 7.1214L114.032 7.41469C113.877 6.96778 113.539 6.70242 113.061 6.70242C112.386 6.70242 111.964 7.21916 111.964 8.0292C111.964 8.83923 112.386 9.35597 113.061 9.35597C113.539 9.35597 113.877 9.09062 114.046 8.6437L115.002 8.93699C114.763 9.73305 114.017 10.1939 113.075 10.1939Z" fill="white"/>
<path d="M119.22 5.93429V6.84208H117.744V10.1241H116.731V6.84208H115.241V5.93429H119.22Z" fill="white"/>
<path d="M120.472 8.35041C120.57 8.97889 120.992 9.35597 121.653 9.35597C122.202 9.35597 122.595 9.14648 122.848 8.85319L123.481 9.45373C123.102 9.88668 122.497 10.1939 121.653 10.1939C120.205 10.1939 119.46 9.27217 119.46 8.0292C119.46 6.74432 120.303 5.86446 121.583 5.86446C122.834 5.86446 123.65 6.71639 123.65 8.0292C123.65 8.12696 123.65 8.21075 123.608 8.35041H120.472ZM121.583 6.67449C120.992 6.67449 120.599 7.02364 120.486 7.61021H122.623C122.511 7.00967 122.131 6.67449 121.583 6.67449Z" fill="white"/>
<path d="M126.912 5.86446C128.009 5.86446 128.726 6.71639 128.726 8.0292C128.726 9.32804 127.981 10.1939 126.912 10.1939C126.35 10.1939 125.886 9.98444 125.562 9.59339V11.5207H124.55V5.93429H125.45L125.506 6.56276C125.83 6.11585 126.322 5.86446 126.912 5.86446ZM126.603 9.35597C127.278 9.35597 127.7 8.83923 127.7 8.0292C127.7 7.21916 127.278 6.70242 126.603 6.70242C125.928 6.70242 125.52 7.21916 125.52 8.0292C125.52 8.83923 125.928 9.35597 126.603 9.35597Z" fill="white"/>
<path d="M131.497 10.1939C130.217 10.1939 129.345 9.32804 129.345 8.0292C129.345 6.73035 130.217 5.86446 131.497 5.86446C132.439 5.86446 133.184 6.32534 133.423 7.1214L132.453 7.41469C132.298 6.96778 131.961 6.70242 131.483 6.70242C130.808 6.70242 130.386 7.21916 130.386 8.0292C130.386 8.83923 130.808 9.35597 131.483 9.35597C131.961 9.35597 132.298 9.09062 132.467 8.6437L133.423 8.93699C133.184 9.73305 132.439 10.1939 131.497 10.1939Z" fill="white"/>
<path d="M137.642 5.93429V6.84208H136.165V10.1241H135.153V6.84208H133.662V5.93429H137.642Z" fill="white"/>
<path d="M141.284 7.97333C141.748 8.12696 142.001 8.47611 142.001 8.97889C142.001 9.71909 141.425 10.1241 140.468 10.1241H138.387V5.93429H140.314C141.298 5.93429 141.889 6.28344 141.889 7.03761C141.889 7.49849 141.65 7.8197 141.284 7.97333ZM139.343 6.68845V7.62418H140.314C140.721 7.62418 140.904 7.48452 140.904 7.14933C140.904 6.85605 140.707 6.68845 140.342 6.68845H139.343ZM140.37 9.35597C140.764 9.35597 140.989 9.16045 140.989 8.85319C140.989 8.53197 140.75 8.33645 140.342 8.33645H139.343V9.35597H140.37Z" fill="white"/>
<path d="M144.785 10.1939C143.464 10.1939 142.606 9.342 142.606 8.0292C142.606 6.73035 143.492 5.86446 144.785 5.86446C146.107 5.86446 146.965 6.71639 146.965 8.0292C146.965 9.32804 146.079 10.1939 144.785 10.1939ZM144.785 9.35597C145.489 9.35597 145.924 8.85319 145.924 8.0292C145.924 7.2052 145.489 6.70242 144.785 6.70242C144.082 6.70242 143.646 7.2052 143.646 8.0292C143.646 8.85319 144.082 9.35597 144.785 9.35597Z" fill="white"/>
<path d="M152.998 10.1241L151.718 8.28058L151.142 8.82526V10.1241H150.129V5.93429H151.142V7.69401L152.871 5.93429H154.137L152.421 7.58228L154.207 10.1241H152.998Z" fill="white"/>
<path d="M157.849 5.93429H158.904L157.399 10.18C157.09 11.0598 156.57 11.5905 155.824 11.5905C154.854 11.5905 154.516 10.9481 154.488 10.3057L155.416 10.1381C155.43 10.4733 155.529 10.7107 155.852 10.7107C156.035 10.7107 156.176 10.5989 156.316 10.3615L154.348 5.93429H155.459L156.809 9.24424L157.849 5.93429Z" fill="white"/>
<path d="M163.319 5.93429V10.1241H162.307V6.84208H160.788V8.18282C160.788 9.67719 160.451 10.152 159.551 10.152C159.396 10.152 159.227 10.1381 159.115 10.1241V9.21631H159.354C159.691 9.21631 159.79 9.09062 159.79 8.07109V5.93429H163.319Z" fill="white"/>
<path d="M166.61 7.41469C167.594 7.41469 168.199 7.93143 168.199 8.7694C168.199 9.60736 167.58 10.1241 166.61 10.1241H164.543V5.93429H165.555V7.41469H166.61ZM166.469 9.32804C166.919 9.32804 167.172 9.13251 167.172 8.75543C167.172 8.39231 166.919 8.19679 166.469 8.19679H165.555V9.32804H166.469Z" fill="white"/>
<path d="M172.558 5.93429V6.84208H171.082V10.1241H170.069V6.84208H168.579V5.93429H172.558Z" fill="white"/>
<path d="M176.299 5.93429H177.353L175.849 10.18C175.539 11.0598 175.019 11.5905 174.274 11.5905C173.303 11.5905 172.966 10.9481 172.938 10.3057L173.866 10.1381C173.88 10.4733 173.978 10.7107 174.302 10.7107C174.485 10.7107 174.625 10.5989 174.766 10.3615L172.797 5.93429H173.908L175.258 9.24424L176.299 5.93429Z" fill="white"/>
<path d="M180.405 5.86446C181.502 5.86446 182.219 6.71639 182.219 8.0292C182.219 9.32804 181.474 10.1939 180.405 10.1939C179.842 10.1939 179.378 9.98444 179.055 9.59339V11.5207H178.042V5.93429H178.942L178.999 6.56276C179.322 6.11585 179.814 5.86446 180.405 5.86446ZM180.095 9.35597C180.77 9.35597 181.192 8.83923 181.192 8.0292C181.192 7.21916 180.77 6.70242 180.095 6.70242C179.421 6.70242 179.013 7.21916 179.013 8.0292C179.013 8.83923 179.421 9.35597 180.095 9.35597Z" fill="white"/>
<path d="M185.988 5.93429H187V10.1241H186.016V7.35882L184.145 10.1241H183.133V5.93429H184.131V8.69957L185.988 5.93429Z" fill="white"/>
<path d="M97.2132 14.6739V15.5817H95.7367V18.8637H94.7242V15.5817H93.2336V14.6739H97.2132Z" fill="white"/>
<path d="M101.418 17.9979H101.587V18.8637C101.516 18.8777 101.404 18.8917 101.221 18.8917C100.701 18.8917 100.433 18.6962 100.363 18.2492C100.054 18.6682 99.5053 18.9336 98.8866 18.9336C98.071 18.9336 97.5085 18.4448 97.5085 17.7046C97.5085 16.6431 98.521 16.4337 99.3225 16.3359C99.8709 16.2661 100.223 16.1962 100.223 15.9169C100.223 15.6236 99.9131 15.4281 99.4069 15.4281C98.9569 15.4281 98.5491 15.6097 98.2116 15.9448L97.6069 15.3164C98.0991 14.8555 98.7178 14.6041 99.4632 14.6041C100.532 14.6041 101.165 15.1348 101.165 16.0007V17.7465C101.165 17.9141 101.249 17.9979 101.418 17.9979ZM99.0975 18.1375C99.7022 18.1375 100.194 17.7325 100.194 17.2437V16.8107C100.026 16.9085 99.7866 16.9504 99.435 17.0063C98.9569 17.0901 98.4929 17.1599 98.4929 17.6208C98.4929 17.942 98.7178 18.1375 99.0975 18.1375Z" fill="white"/>
<path d="M104.736 14.1153V13.2215H105.833V14.1153H104.736ZM104.779 18.8637V14.6739H105.791V18.8637H104.779Z" fill="white"/>
<path d="M109.925 14.6739H110.938V18.8637H109.925V17.1878H108.097V18.8637H107.085V14.6739H108.097V16.2661H109.925V14.6739Z" fill="white"/>
<path d="M116.844 14.6181C117.87 14.6181 118.531 15.456 118.531 16.7688C118.531 18.0537 117.856 18.9196 116.844 18.9196C116.366 18.9196 115.986 18.752 115.705 18.4168V20.2604H114.692V18.3889C114.411 18.7381 114.017 18.9196 113.539 18.9196C112.513 18.9196 111.852 18.0816 111.852 16.7688C111.852 15.484 112.527 14.6181 113.539 14.6181C114.032 14.6181 114.411 14.7857 114.692 15.1208V13.2773H115.705V15.1348C115.986 14.7857 116.38 14.6181 116.844 14.6181ZM113.807 18.0956C114.383 18.0956 114.735 17.5789 114.735 16.7688C114.735 15.9588 114.383 15.4421 113.807 15.4421C113.244 15.4421 112.878 15.9588 112.878 16.7688C112.878 17.5789 113.244 18.0956 113.807 18.0956ZM116.591 18.0956C117.153 18.0956 117.505 17.5789 117.505 16.7688C117.505 15.9588 117.153 15.4421 116.591 15.4421C116 15.4421 115.649 15.9588 115.649 16.7688C115.649 17.5789 116 18.0956 116.591 18.0956Z" fill="white"/>
<path d="M121.33 18.9336C120.008 18.9336 119.15 18.0816 119.15 16.7688C119.15 15.47 120.036 14.6041 121.33 14.6041C122.652 14.6041 123.509 15.456 123.509 16.7688C123.509 18.0677 122.623 18.9336 121.33 18.9336ZM121.33 18.0956C122.033 18.0956 122.469 17.5928 122.469 16.7688C122.469 15.9448 122.033 15.4421 121.33 15.4421C120.627 15.4421 120.191 15.9448 120.191 16.7688C120.191 17.5928 120.627 18.0956 121.33 18.0956Z" fill="white"/>
<path d="M126.786 14.6041C127.883 14.6041 128.6 15.456 128.6 16.7688C128.6 18.0677 127.855 18.9336 126.786 18.9336C126.223 18.9336 125.759 18.7241 125.436 18.333V20.2604H124.423V14.6739H125.323L125.38 15.3024C125.703 14.8555 126.195 14.6041 126.786 14.6041ZM126.477 18.0956C127.152 18.0956 127.573 17.5789 127.573 16.7688C127.573 15.9588 127.152 15.4421 126.477 15.4421C125.802 15.4421 125.394 15.9588 125.394 16.7688C125.394 17.5789 125.802 18.0956 126.477 18.0956Z" fill="white"/>
<path d="M134.731 14.6739V18.8637H133.761V15.7912L132.636 18.8637H131.623L130.498 15.7912V18.8637H129.514V14.6739H131.033L132.144 17.7185L133.24 14.6739H134.731Z" fill="white"/>
<path d="M139.526 17.9979H139.695V18.8637C139.625 18.8777 139.512 18.8917 139.329 18.8917C138.809 18.8917 138.542 18.6962 138.472 18.2492C138.162 18.6682 137.614 18.9336 136.995 18.9336C136.179 18.9336 135.617 18.4448 135.617 17.7046C135.617 16.6431 136.629 16.4337 137.431 16.3359C137.979 16.2661 138.331 16.1962 138.331 15.9169C138.331 15.6236 138.022 15.4281 137.515 15.4281C137.065 15.4281 136.658 15.6097 136.32 15.9448L135.715 15.3164C136.208 14.8555 136.826 14.6041 137.572 14.6041C138.64 14.6041 139.273 15.1348 139.273 16.0007V17.7465C139.273 17.9141 139.357 17.9979 139.526 17.9979ZM137.206 18.1375C137.811 18.1375 138.303 17.7325 138.303 17.2437V16.8107C138.134 16.9085 137.895 16.9504 137.543 17.0063C137.065 17.0901 136.601 17.1599 136.601 17.6208C136.601 17.942 136.826 18.1375 137.206 18.1375Z" fill="white"/>
<path d="M144.378 17.956H144.94V19.8414H143.97V18.8637H140.567V14.6739H141.579V17.956H143.365V14.6739H144.378V17.956Z" fill="white"/>
<path d="M145.812 14.1153V13.2215H146.909V14.1153H145.812ZM145.854 18.8637V14.6739H146.867V18.8637H145.854Z" fill="white"/>
<path d="M150.101 14.2829C149.313 14.2829 148.807 13.8918 148.737 13.2634L149.51 13.1516C149.567 13.4729 149.792 13.6404 150.101 13.6404C150.41 13.6404 150.635 13.4729 150.692 13.1516L151.465 13.2634C151.395 13.8918 150.888 14.2829 150.101 14.2829ZM151.015 14.6739H152.027V18.8637H151.043V16.0985L149.173 18.8637H148.16V14.6739H149.159V17.4392L151.015 14.6739Z" fill="white"/>
<path d="M156.091 14.6739H157.104V18.8637H156.091V17.1878H154.263V18.8637H153.251V14.6739H154.263V16.2661H156.091V14.6739Z" fill="white"/>
<path d="M160.198 18.9336C158.876 18.9336 158.018 18.0816 158.018 16.7688C158.018 15.47 158.904 14.6041 160.198 14.6041C161.519 14.6041 162.377 15.456 162.377 16.7688C162.377 18.0677 161.491 18.9336 160.198 18.9336ZM160.198 18.0956C160.901 18.0956 161.337 17.5928 161.337 16.7688C161.337 15.9448 160.901 15.4421 160.198 15.4421C159.494 15.4421 159.059 15.9448 159.059 16.7688C159.059 17.5928 159.494 18.0956 160.198 18.0956Z" fill="white"/>
<path d="M162.56 14.1153V13.2215H163.615V14.1153H162.56ZM164.121 14.1153V13.2215H165.176V14.1153H164.121ZM163.362 18.8637V14.6739H164.374V18.8637H163.362Z" fill="white"/>
<path d="M97.5507 23.4136V27.6034H96.5382V24.3214H94.7101V27.6034H93.6977V23.4136H97.5507Z" fill="white"/>
<path d="M100.644 27.6732C99.3225 27.6732 98.4647 26.8213 98.4647 25.5085C98.4647 24.2096 99.3507 23.3437 100.644 23.3437C101.966 23.3437 102.824 24.1957 102.824 25.5085C102.824 26.8073 101.938 27.6732 100.644 27.6732ZM100.644 26.8353C101.347 26.8353 101.783 26.3325 101.783 25.5085C101.783 24.6845 101.347 24.1817 100.644 24.1817C99.9413 24.1817 99.5053 24.6845 99.5053 25.5085C99.5053 26.3325 99.9413 26.8353 100.644 26.8353Z" fill="white"/>
<path d="M107.38 23.4136V27.6034H106.368V24.3214H104.849V25.6621C104.849 27.1565 104.511 27.6313 103.611 27.6313C103.457 27.6313 103.288 27.6174 103.176 27.6034V26.6956H103.415C103.752 26.6956 103.851 26.5699 103.851 25.5504V23.4136H107.38Z" fill="white"/>
<path d="M108.632 22.8549V21.9611H109.729V22.8549H108.632ZM108.674 27.6034V23.4136H109.686V27.6034H108.674Z" fill="white"/>
<path d="M114.496 23.4136V24.3214H113.019V27.6034H112.007V24.3214H110.516V23.4136H114.496Z" fill="white"/>
<path d="M118.095 23.4136H119.108V27.6034H118.124V24.8381L116.253 27.6034H115.241V23.4136H116.239V26.1789L118.095 23.4136Z" fill="white"/>
<path d="M123.2 27.6034L121.92 25.7599L121.344 26.3046V27.6034H120.331V23.4136H121.344V25.1733L123.073 23.4136H124.339L122.623 25.0616L124.409 27.6034H123.2Z" fill="white"/>
<path d="M127.911 23.4136H128.923V27.6034H127.939V24.8381L126.069 27.6034H125.056V23.4136H126.055V26.1789L127.911 23.4136Z" fill="white"/>
<path d="M135.912 22.2963H137.037L135.378 26.3744C135.068 27.1425 134.647 27.6732 133.817 27.6732C133.044 27.6732 132.551 27.1285 132.523 26.4023L133.381 26.1928C133.395 26.5978 133.564 26.8073 133.859 26.8073C134.028 26.8073 134.183 26.7515 134.295 26.5978L131.862 22.2963H133.072L134.731 25.5225L135.912 22.2963Z" fill="white"/>
<path d="M140.243 27.6034L138.964 25.7599L138.387 26.3046V27.6034H137.375V23.4136H138.387V25.1733L140.117 23.4136H141.382L139.667 25.0616L141.453 27.6034H140.243Z" fill="white"/>
<path d="M144.462 23.3437C145.559 23.3437 146.276 24.1957 146.276 25.5085C146.276 26.8073 145.531 27.6732 144.462 27.6732C143.9 27.6732 143.435 27.4637 143.112 27.0727V29H142.1V23.4136H143L143.056 24.042C143.379 23.5951 143.871 23.3437 144.462 23.3437ZM144.153 26.8353C144.828 26.8353 145.249 26.3185 145.249 25.5085C145.249 24.6985 144.828 24.1817 144.153 24.1817C143.478 24.1817 143.07 24.6985 143.07 25.5085C143.07 26.3185 143.478 26.8353 144.153 26.8353Z" fill="white"/>
<path d="M150.677 26.7375H150.846V27.6034C150.776 27.6174 150.663 27.6313 150.481 27.6313C149.96 27.6313 149.693 27.4358 149.623 26.9889C149.313 27.4079 148.765 27.6732 148.146 27.6732C147.331 27.6732 146.768 27.1844 146.768 26.4442C146.768 25.3828 147.781 25.1733 148.582 25.0755C149.131 25.0057 149.482 24.9359 149.482 24.6566C149.482 24.3633 149.173 24.1677 148.667 24.1677C148.217 24.1677 147.809 24.3493 147.471 24.6845L146.867 24.056C147.359 23.5951 147.978 23.3437 148.723 23.3437C149.792 23.3437 150.424 23.8745 150.424 24.7404V26.4861C150.424 26.6537 150.509 26.7375 150.677 26.7375ZM148.357 26.8772C148.962 26.8772 149.454 26.4721 149.454 25.9833V25.5504C149.285 25.6481 149.046 25.69 148.695 25.7459C148.217 25.8297 147.753 25.8995 147.753 26.3604C147.753 26.6816 147.978 26.8772 148.357 26.8772Z" fill="white"/>
<path d="M150.987 22.8549V21.9611H152.042V22.8549H150.987ZM152.548 22.8549V21.9611H153.602V22.8549H152.548ZM151.788 27.6034V23.4136H152.801V27.6034H151.788Z" fill="white"/>
<path d="M156.935 23.4136H157.948V27.6034H156.935V25.9275H155.107V27.6034H154.095V23.4136H155.107V25.0057H156.935V23.4136Z" fill="white"/>
<path d="M162.012 23.4136H163.024V27.6034H162.04V24.8381L160.169 27.6034H159.157V23.4136H160.155V26.1789L162.012 23.4136Z" fill="white"/>
<path d="M29.748 6.15883C28.1949 4.95079 26.1878 4.54809 24.3002 5.02184C21.7196 5.6851 18.7807 6.8458 16.1284 8.85929C13.4763 6.8458 10.5372 5.6851 7.95669 5.02184C6.04516 4.54809 4.06198 4.95079 2.50886 6.15883C0.90797 7.39063 0 9.23824 0 11.228V27.7621H1.50533V11.228C1.50533 9.71204 2.19824 8.29079 3.41684 7.34324C4.61154 6.41942 6.11688 6.11149 7.57437 6.46682C9.89211 7.05899 12.5205 8.0776 14.9098 9.83047C12.5921 11.9387 10.585 14.8048 9.43814 18.7371C8.91247 20.5136 8.93636 22.2902 9.50981 23.9246C10.2027 25.9144 11.8753 28.2595 15.8417 28.449H16.3912C20.3577 28.2359 22.0302 25.9144 22.7232 23.9246C23.2966 22.2902 23.3206 20.5136 22.7948 18.7371C21.6479 14.8048 19.6409 11.9387 17.3231 9.83047C19.7126 8.0776 22.3409 7.05899 24.6586 6.46682C26.1162 6.08777 27.6214 6.41942 28.8161 7.34324C30.0348 8.29079 30.7276 9.68828 30.7276 11.228V27.7621H32.233V11.228C32.2568 9.23824 31.3489 7.39063 29.748 6.15883ZM21.3373 19.1871C21.7674 20.6321 21.7435 22.1481 21.2896 23.4746C20.501 25.7487 18.7568 26.9331 16.1046 27.0041C13.4523 26.9331 11.7081 25.7487 10.9195 23.4746C10.4656 22.1718 10.4417 20.6321 10.8717 19.1871C11.947 15.4682 13.8585 12.7915 16.1046 10.8253C18.3506 12.7678 20.2621 15.4682 21.3373 19.1871Z" fill="#F2D600"/>
<path d="M38.3261 3.48198H36.8208V27.762H38.3261V3.48198Z" fill="#F2D600"/>
<path d="M51.9216 27.762H50.4162C50.4162 22.8349 46.3781 18.8554 41.4321 18.8554H37.7047V17.363H41.4321C47.1905 17.3393 51.9216 22.0295 51.9216 27.762Z" fill="#F2D600"/>
<path d="M47.7403 14.8521C44.5863 14.8521 42.0057 12.3176 42.0057 9.16698C42.0057 6.04025 44.5624 3.48198 47.7403 3.48198C50.8943 3.48198 53.4749 6.01658 53.4749 9.16698C53.4749 12.2938 50.8943 14.8521 47.7403 14.8521ZM47.7403 5.02169C45.4226 5.02169 43.5588 6.89301 43.5588 9.16698C43.5588 11.4647 45.4464 13.3124 47.7403 13.3124C50.058 13.3124 51.9218 11.4411 51.9218 9.16698C51.9218 6.86934 50.058 5.02169 47.7403 5.02169Z" fill="#F2D600"/>
<path d="M61.6946 11.1806C58.5882 11.1806 56.0555 8.6697 56.0555 5.59032C56.0555 2.51091 58.5882 0 61.6946 0C64.8007 0 67.3337 2.51091 67.3337 5.59032C67.3337 8.6697 64.8007 11.1806 61.6946 11.1806ZM61.6946 1.49234C59.4245 1.49234 57.5847 3.31629 57.5847 5.56663C57.5847 7.81695 59.4245 9.64095 61.6946 9.64095C63.9644 9.64095 65.8044 7.81695 65.8044 5.56663C65.8279 3.33998 63.9644 1.49234 61.6946 1.49234Z" fill="#F2D600"/>
<path d="M70.3675 27.7623H68.8622V14.2839C68.8622 9.07265 73.1396 4.85616 78.3724 4.85616C83.6286 4.85616 87.8819 9.09632 87.8819 14.2839V27.7623H86.3766V14.2839C86.3766 9.90165 82.7929 6.34848 78.3724 6.34848C73.9518 6.34848 70.3675 9.90165 70.3675 14.2839V27.7623Z" fill="#F2D600"/>
<path d="M62.4592 17.3395H60.9539V27.7622H62.4592V17.3395Z" fill="#F2D600"/>
</svg>
