<svg width="136" height="25" viewBox="0 0 136 25" fill="none" xmlns="http://www.w3.org/2000/svg">
<g clip-path="url(#clip0_424_3519)">
<path d="M44.8513 0.203125C42.4326 0.203125 40.0682 0.924179 38.0572 2.27511C36.0461 3.62603 34.4787 5.54616 33.5531 7.79267C32.6275 10.0392 32.3853 12.5112 32.8572 14.8961C33.329 17.2809 34.4937 19.4716 36.204 21.191C37.9143 22.9104 40.0933 24.0813 42.4655 24.5557C44.8377 25.0301 47.2966 24.7866 49.5312 23.8561C51.7658 22.9256 53.6757 21.3497 55.0195 19.3279C56.3632 17.3061 57.0804 14.9291 57.0804 12.4975C57.0804 10.883 56.7641 9.2843 56.1496 7.79267C55.535 6.30104 54.6342 4.94572 53.4986 3.80407C52.363 2.66243 51.0149 1.75683 49.5312 1.13898C48.0475 0.521129 46.4573 0.203125 44.8513 0.203125ZM44.8513 19.6979C43.4348 19.6979 42.05 19.2756 40.8722 18.4844C39.6944 17.6932 38.7764 16.5687 38.2343 15.253C37.6923 13.9373 37.5504 12.4895 37.8268 11.0928C38.1031 9.69607 38.7853 8.41308 39.7869 7.40609C40.7886 6.3991 42.0647 5.71333 43.454 5.4355C44.8434 5.15767 46.2834 5.30027 47.5921 5.84525C48.9009 6.39023 50.0194 7.31312 50.8064 8.49721C51.5934 9.68131 52.0135 11.0734 52.0135 12.4975C52.0135 14.4072 51.2589 16.2386 49.9157 17.589C48.5726 18.9393 46.7508 19.6979 44.8513 19.6979Z" fill="#FFBD00"/>
<path d="M71.7467 15.1164H62.0355V23.6231H71.7467V15.1164Z" fill="#FFBD00"/>
<path d="M71.7467 1.37813H62.0355V9.88483H71.7467V1.37813Z" fill="#FFBD00"/>
<path d="M130.822 14.5789C130.69 14.6227 130.551 14.6438 130.412 14.6414C130.165 14.6266 129.925 14.5559 129.71 14.4347C129.495 14.3135 129.309 14.1448 129.168 13.9413L127.819 12.2787L129.56 10.1224H130.741L129.025 12.2412L129.939 13.3288C129.997 13.4154 130.075 13.487 130.166 13.5381C130.256 13.5891 130.358 13.618 130.461 13.6226C130.59 13.6216 130.717 13.594 130.834 13.5413L130.822 14.5789Z" fill="white"/>
<path d="M127.72 10.1036H126.7V14.5476H127.72V10.1036Z" fill="white"/>
<path d="M122.317 13.5851C122.464 13.6599 122.625 13.7025 122.789 13.7101C122.874 13.7145 122.959 13.6987 123.037 13.6639C123.115 13.6292 123.183 13.5765 123.237 13.5101L121.558 10.1036H122.659L123.79 12.3912H123.828L124.754 10.1036H125.848L124.219 13.6101C124.129 13.9073 123.949 14.1688 123.704 14.3581C123.458 14.5475 123.161 14.6552 122.852 14.6664C122.675 14.6715 122.499 14.6483 122.329 14.5976L122.317 13.5851Z" fill="white"/>
<path d="M119.637 10.1161H118.543L116.765 14.5789H117.785L118.17 13.6226H119.992L120.377 14.5789H121.434L119.637 10.1161ZM118.5 12.7913L119.078 11.3599L119.656 12.7913H118.5Z" fill="white"/>
<path d="M105.468 10.1161H104.53L102.428 13.0475H102.391V10.1161H101.365V14.5476H102.316L104.405 11.61H104.436V14.5476H105.468V10.1161Z" fill="white"/>
<path d="M128.801 1.21563C128.35 1.22056 127.91 1.35964 127.537 1.61536C127.164 1.87109 126.875 2.23202 126.705 2.65272C126.536 3.07342 126.494 3.53509 126.585 3.97961C126.676 4.42413 126.896 4.83163 127.217 5.15082C127.538 5.47 127.946 5.68659 128.389 5.77334C128.832 5.86008 129.291 5.81309 129.707 5.63829C130.124 5.46349 130.48 5.16869 130.73 4.791C130.981 4.4133 131.114 3.9696 131.114 3.51575C131.115 3.21134 131.056 2.90981 130.939 2.62872C130.823 2.34763 130.652 2.09262 130.437 1.87853C130.222 1.66445 129.966 1.49558 129.686 1.38177C129.405 1.26796 129.104 1.21148 128.801 1.21563ZM128.801 4.86582C128.629 4.86638 128.459 4.83105 128.301 4.76207C128.144 4.69309 128.002 4.59196 127.885 4.46507C127.768 4.33818 127.679 4.1883 127.622 4.0249C127.566 3.86149 127.544 3.68812 127.558 3.51575C127.546 3.33954 127.57 3.16268 127.628 2.99618C127.687 2.82968 127.779 2.6771 127.899 2.54792C128.019 2.41874 128.164 2.31573 128.325 2.2453C128.486 2.17487 128.66 2.13853 128.836 2.13853C129.011 2.13853 129.185 2.17487 129.346 2.2453C129.507 2.31573 129.652 2.41874 129.772 2.54792C129.892 2.6771 129.984 2.82968 130.043 2.99618C130.101 3.16268 130.125 3.33954 130.113 3.51575C130.128 3.69407 130.104 3.87345 130.044 4.04177C129.983 4.21009 129.888 4.36342 129.763 4.49141C129.639 4.61939 129.489 4.71905 129.323 4.78365C129.157 4.84824 128.979 4.87626 128.801 4.86582Z" fill="white"/>
<path d="M124.847 3.32836C124.991 3.24253 125.111 3.1222 125.197 2.97819C125.282 2.83417 125.331 2.67099 125.338 2.50331C125.338 1.77203 124.717 1.31575 123.759 1.31575H122.205V5.73474H124.002C124.965 5.73474 125.587 5.20346 125.587 4.36591C125.578 4.13927 125.503 3.92027 125.372 3.73591C125.24 3.55155 125.058 3.40988 124.847 3.32836ZM123.231 2.1658H123.685C124.039 2.1658 124.306 2.3158 124.306 2.62832C124.306 2.94084 124.101 3.10335 123.772 3.10335H123.237L123.231 2.1658ZM123.921 4.90344H123.231V3.84714H123.933C124.006 3.83927 124.079 3.8468 124.149 3.86924C124.219 3.89168 124.283 3.92854 124.337 3.97743C124.392 4.02632 124.435 4.08615 124.465 4.15307C124.495 4.21998 124.511 4.29249 124.512 4.36591C124.51 4.44021 124.494 4.51343 124.463 4.58083C124.431 4.64822 124.387 4.70831 124.331 4.7572C124.275 4.80609 124.21 4.8427 124.139 4.86466C124.069 4.88662 123.994 4.89344 123.921 4.88469V4.90344Z" fill="white"/>
<path d="M104.94 1.29699H107.657V2.20954H105.972V2.99709H107.551V3.90963H105.972V4.82218H107.7V5.73473H104.94V1.29699Z" fill="white"/>
<path d="M100.227 1.29699H103.883V2.22204H102.565V5.73473H101.533V2.22204H100.227V1.29699Z" fill="white"/>
<path d="M91.1814 3.87213H89.2541V5.73473H88.2283V1.29699H89.2541V2.95958H91.1814V1.29699H92.2073V5.73473H91.1814V3.87213Z" fill="white"/>
<path d="M86.7486 1.29699H85.7166V5.72848H86.7486V1.29699Z" fill="white"/>
<path d="M83.2422 5.73473V3.07834H83.2049L82.148 5.04719H81.4827L80.4134 3.07834H80.3761V5.73473H79.3627V1.29699H80.3885L81.8185 3.85338L83.2422 1.29699H84.2431V5.73473H83.2422Z" fill="white"/>
<path d="M94.719 1.29699H93.687V5.72848H94.719V1.29699Z" fill="white"/>
<path d="M110.741 1.29695H109.062V5.73469H110.094V4.24711H110.716C110.917 4.25632 111.118 4.22538 111.307 4.15606C111.496 4.08674 111.67 3.98043 111.818 3.84326C111.966 3.7061 112.085 3.5408 112.169 3.35693C112.253 3.17306 112.3 2.97426 112.307 2.77203C112.301 2.57172 112.255 2.37464 112.173 2.19207C112.091 2.00951 111.974 1.84502 111.828 1.70803C111.683 1.57103 111.512 1.46421 111.325 1.39368C111.138 1.32314 110.94 1.29027 110.741 1.29695ZM110.666 3.32831H110.106V2.19075H110.666C110.746 2.18273 110.827 2.19191 110.903 2.21769C110.979 2.24346 111.049 2.28523 111.107 2.34021C111.166 2.3952 111.213 2.46215 111.244 2.5366C111.275 2.61106 111.29 2.69131 111.288 2.77203C111.285 2.85006 111.266 2.92666 111.233 2.99726C111.199 3.06786 111.152 3.131 111.094 3.18292C111.036 3.23485 110.969 3.27448 110.895 3.29946C110.821 3.32444 110.743 3.33425 110.666 3.32831Z" fill="white"/>
<path d="M117.486 1.29699H121.142V2.22204H119.824V5.73473H118.792V2.22204H117.486V1.29699Z" fill="white"/>
<path d="M81.7501 10.0349C81.2984 10.0398 80.8583 10.1791 80.4852 10.4351C80.1121 10.6911 79.8228 11.0524 79.6536 11.4735C79.4844 11.8945 79.443 12.3565 79.5346 12.8012C79.6262 13.2459 79.8466 13.6534 80.1682 13.9723C80.4897 14.2912 80.898 14.5073 81.3415 14.5934C81.785 14.6794 82.244 14.6315 82.6605 14.4558C83.077 14.28 83.4324 13.9842 83.682 13.6057C83.9315 13.2272 84.0641 12.7829 84.0629 12.3288C84.0629 12.0249 84.0029 11.724 83.8863 11.4437C83.7697 11.1633 83.5988 10.909 83.3836 10.6956C83.1684 10.4822 82.9132 10.3139 82.6328 10.2005C82.3524 10.087 82.0523 10.0308 81.7501 10.0349ZM81.7501 13.6851C81.5781 13.6857 81.4078 13.6503 81.2501 13.5814C81.0924 13.5124 80.9506 13.4112 80.8337 13.2844C80.7169 13.1575 80.6275 13.0076 80.5712 12.8442C80.5149 12.6808 80.4929 12.5074 80.5067 12.335C80.4944 12.1588 80.5184 11.982 80.5771 11.8155C80.6357 11.649 80.7278 11.4964 80.8477 11.3672C80.9675 11.238 81.1125 11.135 81.2736 11.0646C81.4348 10.9942 81.6086 10.9578 81.7843 10.9578C81.96 10.9578 82.1338 10.9942 82.2949 11.0646C82.4561 11.135 82.6011 11.238 82.7209 11.3672C82.8407 11.4964 82.9329 11.649 82.9915 11.8155C83.0502 11.982 83.0742 12.1588 83.0619 12.335C83.0765 12.5134 83.0527 12.6927 82.9924 12.8611C82.9321 13.0294 82.8365 13.1827 82.7121 13.3107C82.5878 13.4387 82.4375 13.5383 82.2716 13.6029C82.1056 13.6675 81.9278 13.6955 81.7501 13.6851Z" fill="white"/>
<path d="M92.5679 12.1287C92.7117 12.0433 92.832 11.9231 92.9178 11.779C93.0036 11.6349 93.0521 11.4715 93.059 11.3037C93.059 10.5724 92.4373 10.1161 91.4737 10.1161H89.9194V14.5789H91.7161C92.7047 14.5789 93.3015 14.0226 93.3015 13.21C93.3013 12.9766 93.2313 12.7486 93.1004 12.5557C92.9696 12.3629 92.784 12.2141 92.5679 12.1287ZM90.9514 10.9662H91.3928C91.7472 10.9662 92.0145 11.1162 92.0145 11.4287C92.0145 11.7412 91.8094 11.9037 91.4799 11.9037H90.9452L90.9514 10.9662ZM91.6477 13.7038H90.9514V12.6663H91.654C91.7266 12.6584 91.8 12.6659 91.8695 12.6884C91.9391 12.7108 92.0032 12.7477 92.0576 12.7966C92.1121 12.8454 92.1558 12.9053 92.1859 12.9722C92.2159 13.0391 92.2317 13.1116 92.2321 13.185C92.2301 13.2588 92.2127 13.3313 92.1812 13.398C92.1497 13.4646 92.1048 13.524 92.0492 13.5722C91.9936 13.6204 91.9287 13.6565 91.8585 13.678C91.7883 13.6996 91.7144 13.7063 91.6415 13.6976L91.6477 13.7038Z" fill="white"/>
<path d="M114.894 12.6913H112.973V14.5476H111.941V10.1161H112.973V11.7787H114.894V10.1161H115.926V14.5476H114.894V12.6913Z" fill="white"/>
<path d="M95.5584 10.1161H94.5263V14.5476H95.5584V10.1161Z" fill="white"/>
<path d="M96.6526 10.1161H100.308V11.0349H98.9902V14.5476H97.9582V11.0349H96.6526V10.1161Z" fill="white"/>
<path d="M88.5765 13.3976C88.2088 13.5929 87.7987 13.6938 87.3828 13.6914C87.2042 13.7037 87.0249 13.6771 86.8575 13.6133C86.69 13.5495 86.5382 13.4502 86.4124 13.322C86.2867 13.1938 86.1899 13.0398 86.1289 12.8705C86.0678 12.7013 86.0438 12.5207 86.0586 12.3413C86.0442 12.1641 86.0676 11.9858 86.1273 11.8184C86.1869 11.6511 86.2813 11.4984 86.4043 11.3706C86.5273 11.2428 86.676 11.1429 86.8404 11.0775C87.0049 11.012 87.1813 10.9826 87.3579 10.9912C87.7686 10.989 88.1731 11.0923 88.533 11.2913V10.2474C88.1614 10.1145 87.7709 10.0427 87.3766 10.0349C87.0704 10.0274 86.7657 10.0815 86.4806 10.194C86.1954 10.3065 85.9354 10.4751 85.7159 10.6899C85.4965 10.9047 85.3219 11.1615 85.2024 11.445C85.083 11.7286 85.021 12.0333 85.0203 12.3413C85.0156 12.653 85.0747 12.9623 85.1938 13.25C85.313 13.5378 85.4897 13.7978 85.7129 14.0141C85.9362 14.2304 86.2013 14.3982 86.4918 14.5072C86.7822 14.6162 87.0919 14.664 87.4015 14.6477C87.8026 14.648 88.2006 14.576 88.5765 14.4352V13.3976Z" fill="white"/>
<path d="M109.224 10.1161H108.192V14.5476H109.224V10.1161Z" fill="white"/>
<path d="M136.001 10.1161H135.056L132.954 13.0475H132.923V10.1161H131.891V14.5476H132.843L134.931 11.61H134.969V14.5476H136.001V10.1161Z" fill="white"/>
<path d="M99.4752 4.57833C99.1072 4.77314 98.6973 4.87402 98.2815 4.8721C98.1028 4.88441 97.9236 4.85778 97.7561 4.79402C97.5886 4.73026 97.4368 4.63089 97.3111 4.50269C97.1853 4.37449 97.0886 4.22049 97.0275 4.05124C96.9664 3.88198 96.9425 3.70146 96.9572 3.52203C96.9432 3.34699 96.966 3.17094 97.0241 3.00535C97.0823 2.83977 97.1745 2.68835 97.2947 2.56098C97.415 2.43361 97.5605 2.33313 97.722 2.26611C97.8834 2.19908 98.0571 2.167 98.2317 2.17195C98.643 2.17112 99.0477 2.27658 99.4068 2.47822V1.45317C99.0309 1.30888 98.6338 1.2286 98.2317 1.21565C97.9255 1.20816 97.6208 1.26224 97.3357 1.37471C97.0505 1.48718 96.7906 1.65577 96.5711 1.87061C96.3516 2.08544 96.177 2.34218 96.0575 2.62577C95.9381 2.90935 95.8762 3.21406 95.8754 3.52203C95.8716 3.83453 95.9316 4.14451 96.0518 4.43272C96.172 4.72094 96.3499 4.98125 96.5743 5.1975C96.7987 5.41375 97.065 5.58134 97.3565 5.68987C97.648 5.7984 97.9586 5.84555 98.269 5.8284C98.6806 5.83235 99.0894 5.76032 99.4752 5.61589V4.57833Z" fill="white"/>
<path d="M116.703 4.57835C116.335 4.7734 115.925 4.8743 115.509 4.87212C115.33 4.88443 115.151 4.8578 114.984 4.79404C114.816 4.73028 114.664 4.63091 114.539 4.50271C114.413 4.37451 114.316 4.22051 114.255 4.05126C114.194 3.882 114.17 3.70148 114.185 3.52204C114.171 3.34483 114.194 3.16658 114.254 2.99918C114.313 2.83179 114.408 2.6791 114.531 2.55133C114.654 2.42355 114.802 2.32362 114.967 2.2582C115.131 2.19278 115.308 2.16338 115.484 2.17197C115.896 2.17114 116.3 2.2766 116.659 2.47824V1.45318C116.288 1.31967 115.897 1.24789 115.503 1.24067C115.199 1.23404 114.897 1.28793 114.614 1.39923C114.332 1.51052 114.074 1.67702 113.855 1.88912C113.637 2.10122 113.462 2.35471 113.342 2.63498C113.221 2.91525 113.157 3.21673 113.153 3.52204C113.149 3.83289 113.209 4.14122 113.328 4.42811C113.447 4.715 113.623 4.9744 113.845 5.19038C114.068 5.40636 114.332 5.57437 114.621 5.68409C114.91 5.7938 115.219 5.84292 115.528 5.82842C115.929 5.82873 116.327 5.75675 116.703 5.61591V4.57835Z" fill="white"/>
<path d="M88.8065 23.3919C88.6742 23.4357 88.5355 23.4568 88.3962 23.4544C88.1498 23.4396 87.91 23.369 87.6946 23.2477C87.4793 23.1265 87.294 22.9578 87.1528 22.7544L85.7974 21.098L87.5382 18.9417H88.7195L87.0036 21.0605L87.9299 22.1856C87.9877 22.2725 88.0652 22.3444 88.1559 22.3955C88.2467 22.4466 88.3482 22.4753 88.4521 22.4794C88.5808 22.479 88.7079 22.4513 88.8252 22.3981L88.8065 23.3919Z" fill="white"/>
<path d="M85.8907 18.9417H84.8711V23.3857H85.8907V18.9417Z" fill="white"/>
<path d="M80.488 22.4169C80.6348 22.4919 80.7959 22.5345 80.9605 22.5419C81.045 22.547 81.1295 22.5322 81.2072 22.4985C81.285 22.4649 81.3538 22.4134 81.4081 22.3481L79.7295 18.9542H80.8237L81.9552 21.2418H81.9925L82.9189 18.9542H84.0131L82.3842 22.4606C82.2938 22.7578 82.1135 23.0193 81.8684 23.2087C81.6232 23.398 81.3254 23.5058 81.0164 23.5169C80.8398 23.5223 80.6635 23.4991 80.4942 23.4482L80.488 22.4169Z" fill="white"/>
<path d="M96.2484 18.9542H95.1542L93.3761 23.3857H94.3957L94.7812 22.4294H96.5842L96.9696 23.3857H98.0265L96.2484 18.9542ZM95.1231 21.6231L95.7013 20.1917L96.2795 21.6231H95.1231Z" fill="white"/>
<path d="M104.318 21.5231H102.397V23.3857H101.365V18.9479H102.397V20.6105H104.318V18.9479H105.35V23.3857H104.318V21.5231Z" fill="white"/>
<path d="M99.8916 18.9479H98.8596V23.3794H99.8916V18.9479Z" fill="white"/>
<path d="M110.933 18.9479H109.988L107.893 21.8856H107.856V18.9479H106.824V23.3857H107.775L109.87 20.4417H109.901V23.3857H110.933V18.9479Z" fill="white"/>
<path d="M91.5607 18.9542H89.8821V23.3856H90.9141V21.8918H91.5358C91.7399 21.9107 91.9456 21.8866 92.1398 21.8211C92.3341 21.7556 92.5126 21.65 92.664 21.5112C92.8154 21.3724 92.9363 21.2034 93.0191 21.0149C93.1018 20.8265 93.1445 20.6227 93.1445 20.4167C93.1445 20.2107 93.1018 20.007 93.0191 19.8186C92.9363 19.6301 92.8154 19.4611 92.664 19.3223C92.5126 19.1835 92.3341 19.0779 92.1398 19.0124C91.9456 18.9468 91.7399 18.9228 91.5358 18.9417L91.5607 18.9542ZM91.4737 21.0105H90.9141V19.8355H91.4737C91.5536 19.8274 91.6343 19.8366 91.7104 19.8624C91.7865 19.8882 91.8563 19.9299 91.9151 19.9849C91.9739 20.0399 92.0204 20.1069 92.0515 20.1813C92.0826 20.2558 92.0976 20.336 92.0954 20.4167C92.0956 20.4969 92.0793 20.5762 92.0476 20.6498C92.0159 20.7233 91.9693 20.7895 91.9109 20.844C91.8526 20.8986 91.7836 20.9405 91.7083 20.967C91.6331 20.9935 91.5532 21.0041 91.4737 20.998V21.0105Z" fill="white"/>
<path d="M99.127 17.6854H98.3001V18.4604H99.127V17.6854Z" fill="white"/>
<path d="M100.451 17.6854H99.6244V18.4604H100.451V17.6854Z" fill="white"/>
<path fill-rule="evenodd" clip-rule="evenodd" d="M7.27494 24.7482L7.21898 24.6857C7.03891 24.3968 6.80194 24.1479 6.52266 23.9544C6.02391 23.5737 5.58394 23.1209 5.21706 22.6106C4.74528 21.9602 4.3936 21.2298 4.1788 20.4543C4.13828 20.3144 4.10508 20.1726 4.07933 20.0292C4.07933 19.9292 4.02337 19.8917 3.91146 19.8917H0.181177C0.0195312 19.8917 0.0195312 19.8917 0.0195312 19.7355V2.23453C0.169159 2.31415 0.314434 2.40178 0.454731 2.49704C0.790457 2.74705 1.1324 3.00332 1.45569 3.27208C1.90963 3.66741 2.30713 4.12382 2.63695 4.6284C3.1289 5.3609 3.48682 6.17581 3.69386 7.03478C3.86335 7.90881 3.9858 8.79139 4.06067 9.67868C4.19745 10.7162 4.30936 11.7538 4.4337 12.8038C4.4337 12.8663 4.4337 12.9351 4.4337 12.9976C4.4337 13.0601 4.4337 13.1414 4.29071 13.1601C4.10306 13.1626 3.91674 13.1921 3.73738 13.2476C3.56461 13.3192 3.41075 13.4302 3.28794 13.5718C3.16512 13.7134 3.07672 13.8817 3.02969 14.0636C2.98267 14.2454 2.97831 14.4357 3.01697 14.6195C3.05563 14.8033 3.13624 14.9756 3.25245 15.1227C3.44853 15.3584 3.72196 15.5158 4.02337 15.5665L4.59535 15.6852C4.62259 15.6956 4.65276 15.6948 4.67946 15.6832C4.70615 15.6715 4.72728 15.6498 4.73834 15.6227C4.98703 15.1165 5.2668 14.6164 5.4844 14.0977C5.702 13.5789 5.8823 13.0289 6.05638 12.4851C6.39258 11.55 6.59357 10.5712 6.65322 9.57867C6.65322 8.83488 6.65322 8.08484 6.6097 7.3348C6.55375 6.22849 6.47293 5.12218 6.41075 4.01587C6.41075 3.52835 6.36102 3.04082 6.37967 2.55954C6.40433 1.83898 6.65211 1.14413 7.08842 0.571937C7.29359 0.290672 7.28115 0.353175 7.44902 0.571937C7.87416 1.10727 8.12199 1.76295 8.15777 2.44704C8.15777 3.07207 8.15777 3.6971 8.11425 4.32214C8.04586 5.73471 7.95261 7.14104 7.88422 8.55361C7.83103 9.79525 7.99301 11.0367 8.36294 12.2226C8.57919 12.9799 8.84716 13.7212 9.16495 14.4414C9.34525 14.829 9.55663 15.2102 9.75558 15.5915C9.76113 15.6095 9.77031 15.6262 9.78257 15.6405C9.79482 15.6549 9.80987 15.6665 9.82678 15.6747C9.8437 15.6829 9.86211 15.6875 9.88088 15.6883C9.89965 15.689 9.91837 15.6858 9.93587 15.679C10.2171 15.6257 10.4953 15.5568 10.769 15.4727C10.9866 15.3968 11.1757 15.2553 11.3103 15.0673C11.4449 14.8794 11.5186 14.6543 11.5212 14.4227C11.5438 14.1441 11.4684 13.8664 11.3082 13.638C11.148 13.4095 10.9132 13.2449 10.6446 13.1726C10.4949 13.1445 10.3431 13.1299 10.1908 13.1289H10.0602C10.0975 12.8163 10.1348 12.5038 10.1721 12.2226C10.2965 11.1663 10.4146 10.1037 10.5514 9.04739C10.6096 8.32817 10.7177 7.6139 10.8747 6.90978C11.1341 5.92313 11.591 5.00008 12.2176 4.19713C12.4092 3.93442 12.6168 3.68393 12.8393 3.44709C13.3244 2.95927 13.8722 2.53886 14.4682 2.19702H14.5366C14.5366 2.24703 14.5366 2.29078 14.5366 2.33453C14.5366 7.25563 14.5366 12.1767 14.5366 17.0978V19.6917C14.5366 19.8542 14.5366 19.8542 14.3811 19.8542H10.6135C10.5016 19.8542 10.4581 19.8542 10.4332 20.0042C10.3396 20.544 10.1766 21.0693 9.94831 21.5668C9.69078 22.0972 9.36467 22.5911 8.97843 23.0356C8.63623 23.4197 8.25954 23.7712 7.85313 24.0857C7.68129 24.2448 7.52322 24.4184 7.38063 24.6045C7.34193 24.6497 7.3066 24.6978 7.27494 24.7482ZM1.24431 4.75341H1.20079V4.92842C1.20079 7.76191 1.20079 10.5933 1.20079 13.4226C1.20079 13.4976 1.20079 13.5789 1.20079 13.6539C1.20079 13.7289 1.20079 13.7414 1.28783 13.7414H1.7852C1.80237 13.744 1.81989 13.7432 1.83674 13.739C1.85359 13.7347 1.86942 13.7271 1.88332 13.7167C1.89721 13.7062 1.90889 13.693 1.91766 13.6779C1.92644 13.6629 1.93213 13.6462 1.93441 13.6289C2.02449 13.3306 2.17253 13.0533 2.36996 12.813C2.56739 12.5727 2.81029 12.3741 3.08458 12.2288C3.1102 12.2145 3.13026 12.1919 3.14154 12.1646C3.15282 12.1374 3.15465 12.1072 3.14675 12.0788C3.14675 11.9288 3.10945 11.7725 3.0908 11.6163C2.96024 10.485 2.81725 9.35991 2.6929 8.2286C2.57894 7.12014 2.18046 6.06046 1.53651 5.15343C1.43704 5.02218 1.33135 4.89092 1.24431 4.75341ZM13.3491 13.7476V4.75966H13.3056C13.175 4.94717 13.0382 5.12843 12.9077 5.31594C12.3597 6.11274 12.01 7.03017 11.8881 7.99108C11.714 9.35366 11.5648 10.7225 11.3969 12.0851C11.3969 12.1851 11.4342 12.2288 11.5026 12.2726C11.6599 12.3692 11.8095 12.4779 11.9502 12.5976C12.2732 12.8912 12.5116 13.2669 12.6403 13.6851C12.6465 13.7017 12.6565 13.7165 12.6695 13.7285C12.6824 13.7404 12.698 13.7491 12.7149 13.7539L13.3491 13.7476ZM1.18835 16.8103C1.18835 17.3853 1.18835 17.9541 1.18835 18.5229C1.18835 18.6167 1.18835 18.6479 1.3127 18.6479H3.79955C3.89903 18.6479 3.93633 18.6479 3.94255 18.5229C3.96123 17.9868 4.03837 17.4545 4.17258 16.9353C4.17258 16.8666 4.17258 16.8416 4.10419 16.8353L3.70008 16.7416C3.28197 16.6371 2.89964 16.4212 2.59343 16.1165C2.27982 15.8374 2.0459 15.4792 1.91576 15.079C1.90968 15.0451 1.89065 15.0151 1.86275 14.9952C1.83485 14.9753 1.80031 14.9673 1.76655 14.9727C1.61734 14.9727 1.46813 14.9727 1.31891 14.9727C1.1697 14.9727 1.18835 14.9727 1.18835 15.104C1.19457 15.6852 1.18835 16.2478 1.18835 16.8103ZM11.9751 18.6479C12.3854 18.6479 12.7895 18.6479 13.2185 18.6479C13.3367 18.6479 13.3802 18.6104 13.374 18.4916C13.374 18.4916 13.374 18.4479 13.374 18.4229C13.374 17.9541 13.374 17.4916 13.374 17.0228C13.374 16.3978 13.374 15.729 13.374 15.0852C13.374 15.004 13.374 14.9852 13.2745 14.9852H12.8704C12.6776 14.9852 12.6776 14.9852 12.6155 15.1665C12.5066 15.4929 12.3285 15.7917 12.0934 16.0421C11.8583 16.2925 11.5718 16.4885 11.2539 16.6165C11.0043 16.7055 10.7488 16.7765 10.4892 16.8291C10.4084 16.8291 10.3835 16.8853 10.4084 16.9666C10.5382 17.4799 10.6112 18.006 10.626 18.5354C10.626 18.6292 10.6633 18.6604 10.7565 18.6604L11.9751 18.6479ZM5.94447 15.9978C6.14342 16.0978 6.32993 16.179 6.51023 16.279C6.76334 16.4177 6.99054 16.5996 7.18168 16.8166C7.27494 16.9166 7.27494 16.9291 7.35576 16.8166C7.58476 16.5522 7.86648 16.3393 8.18264 16.1915C8.3132 16.129 8.44998 16.0728 8.60541 16.004C8.05834 15.0603 7.61235 14.0609 7.27494 13.0226C6.93845 14.0613 6.49242 15.0607 5.94447 16.004V15.9978ZM9.26442 19.8667H8.02099C7.90909 19.8667 7.878 19.8667 7.878 20.0042C7.878 20.773 7.878 21.5356 7.878 22.3044C7.878 22.3356 7.878 22.3731 7.878 22.4419C8.55577 21.7223 9.03383 20.8365 9.26442 19.873V19.8667ZM5.28545 19.8667C5.39114 20.6105 6.25533 22.2168 6.65322 22.3669C6.65443 22.3523 6.65443 22.3377 6.65322 22.3231C6.65322 21.5231 6.65322 20.723 6.65322 19.9292C6.65322 19.8417 6.6097 19.8292 6.5351 19.8292H5.29167L5.28545 19.8667ZM5.90717 18.6167H6.52888C6.67187 18.6167 6.69053 18.6167 6.65944 18.4666C6.62402 18.2512 6.56134 18.0411 6.47293 17.8416C6.37447 17.6539 6.23589 17.4904 6.06712 17.3628C5.89836 17.2353 5.7036 17.1469 5.49683 17.1041C5.40979 17.1041 5.35384 17.1041 5.32897 17.2041C5.22227 17.6254 5.16181 18.0571 5.14867 18.4916C5.14867 18.5729 5.14867 18.5979 5.25437 18.5979L5.90717 18.6167ZM9.28929 18.6167C9.3639 18.6167 9.4012 18.6167 9.4012 18.5104C9.39593 18.088 9.33744 17.668 9.22712 17.2603C9.1836 17.1041 9.16495 17.0978 9.00952 17.1416C8.7046 17.2219 8.43266 17.3969 8.23238 17.6416C8.02844 17.8897 7.90671 18.1956 7.88422 18.5166C7.88422 18.5917 7.88422 18.6229 7.98369 18.6167H9.28929Z" fill="#FFBD00"/>
<path d="M24.3161 1.48442H23.6944V23.8044H24.3161V1.48442Z" fill="#FFBD00"/>
</g>
<defs>
<clipPath id="clip0_424_3519">
<rect width="136" height="25" fill="white"/>
</clipPath>
</defs>
</svg>
