<svg width="198" height="80" viewBox="0 0 198 80" fill="none" xmlns="http://www.w3.org/2000/svg">
<path d="M58.3122 24.0998H24.8056C23.6966 24.0998 22.7461 23.2371 22.7461 22.0607V14.4531H56.2526C57.3616 14.4531 58.3122 15.3158 58.3122 16.4923V24.0998Z" fill="#0092AA"/>
<path d="M58.3122 42.842H24.8056C23.6966 42.842 22.7461 41.9793 22.7461 40.8029V33.1953H56.2526C57.3616 33.1953 58.3122 34.058 58.3122 35.2345V42.842Z" fill="#00AEB3"/>
<path d="M58.3122 61.5139H24.8056C23.6966 61.5139 22.7461 60.6512 22.7461 59.4748V51.8672H56.2526C57.3616 51.8672 58.3122 52.7299 58.3122 53.9063V61.5139Z" fill="#00C4BB"/>
<path d="M119.145 61.5103V16.4923C119.145 15.3943 118.274 14.4531 117.086 14.4531H109.402V59.4712C109.402 60.5692 110.274 61.5103 111.462 61.5103H119.145Z" fill="url(#paint0_linear_2433_1748)"/>
<path d="M166.118 61.4316C164.851 61.4316 163.346 60.5689 162.87 59.4709L151.147 34.7658C150.672 33.6678 149.088 33.6678 148.612 34.7658L136.889 59.4709C136.334 60.5689 134.909 61.4316 133.641 61.4316H124.77L144.335 20.2565L146.157 16.492C146.632 15.4724 147.345 14.5312 148.058 14.5312C148.137 14.5312 149.959 14.5312 149.959 14.5312C149.959 14.5312 151.781 14.5312 151.86 14.5312C152.652 14.5312 153.286 15.4724 153.761 16.492L155.583 20.2565L175.307 61.4316H166.118Z" fill="url(#paint1_linear_2433_1748)"/>
<path d="M76.7665 51.8636V16.4923C76.7665 15.3943 75.8952 14.4531 74.707 14.4531H67.0234V59.4712C67.0234 60.5692 67.8948 61.5103 69.0829 61.5103H100.609C101.718 61.5103 102.669 60.6476 102.669 59.4712V51.8636H76.7665Z" fill="url(#paint2_linear_2433_1748)"/>
<defs>
<linearGradient id="paint0_linear_2433_1748" x1="114.295" y1="14.4592" x2="114.295" y2="61.5212" gradientUnits="userSpaceOnUse">
<stop offset="0.00945038" stop-color="#A8AAAD"/>
<stop offset="1" stop-color="#CBCBCB"/>
</linearGradient>
<linearGradient id="paint1_linear_2433_1748" x1="149.901" y1="14.5251" x2="149.901" y2="61.4546" gradientUnits="userSpaceOnUse">
<stop stop-color="#DC0964"/>
<stop offset="1" stop-color="#FE0098"/>
</linearGradient>
<linearGradient id="paint2_linear_2433_1748" x1="84.7672" y1="14.4592" x2="84.7672" y2="61.5212" gradientUnits="userSpaceOnUse">
<stop stop-color="#F7901D"/>
<stop offset="1" stop-color="#FFCA01"/>
</linearGradient>
</defs>
</svg>
