<svg width="258" height="62" viewBox="0 0 258 62" fill="none" xmlns="http://www.w3.org/2000/svg">
<path d="M104.985 2.47656V1.47656H103.985H2.39844H1.39844V2.47656V59.3233V60.3233H2.39844H103.985H104.985V59.3233V2.47656Z" stroke="black" stroke-width="2"/>
<path d="M120.086 17.2773V5.9375H127.325V7.63694H122.006V10.9979H126.974V12.678H122.006V17.2773H120.086Z" fill="black"/>
<path d="M131.147 5.9375H129.227V17.2773H131.147V5.9375Z" fill="black"/>
<path d="M133.656 5.9375H135.577V15.5603H141.026V17.2773H133.656V5.9375Z" fill="black"/>
<path d="M147.934 17.2773L144.813 9.39091V17.2773H142.984V5.9375H145.183L148.635 14.6546L152.053 5.9375H154.195V17.2773H152.348V9.39091L149.301 17.2773H147.934Z" fill="black"/>
<path d="M156.516 12.7528V5.9375H158.436V12.5495C158.436 14.7286 159.36 15.7451 161.059 15.7451C162.759 15.7451 163.682 14.7286 163.682 12.5495V5.9375H165.602V12.7722C165.602 15.8735 163.774 17.4621 161.059 17.4621C158.363 17.4621 156.516 15.8735 156.516 12.7528Z" fill="black"/>
<path d="M177.053 17.2773H175.576L169.776 9.02126V17.2773H167.93V5.9375H169.739L175.206 13.8054V5.9375H177.053V17.2773Z" fill="black"/>
<path d="M181.479 5.9375H179.559V17.2773H181.479V5.9375Z" fill="black"/>
<path d="M187.39 17.2773L183.105 5.9375H185.117L188.331 14.7831L191.544 5.9375H193.502L189.218 17.2773H187.39Z" fill="black"/>
<path d="M202.531 5.9375V7.63694H197.008V10.6283H202.014V12.3093H197.008V15.5603H202.531V17.2773H195.125V5.9375H202.531Z" fill="black"/>
<path d="M206.537 12.6789V17.2773H204.617V5.9375H208.994C211.339 5.9375 212.854 7.11944 212.854 9.33546C212.854 11.2382 211.746 12.3277 209.954 12.605L213.242 17.2773H211.063L207.904 12.6789H206.537ZM206.537 11.0719H208.957C210.231 11.0719 210.951 10.3889 210.951 9.33546C210.951 8.2829 210.231 7.59998 208.957 7.59998H206.537V11.0719Z" fill="black"/>
<path d="M216.025 14.1414C216.393 15.3048 217.353 15.8408 218.591 15.8408C219.92 15.8408 220.788 15.2133 220.788 14.1608C220.788 13.366 220.327 12.904 219.145 12.6277L217.225 12.1656C215.655 11.796 214.398 10.9467 214.398 9.11788C214.398 7.19758 215.968 5.75781 218.259 5.75781C220.715 5.75781 222.156 7.01276 222.562 8.89702H220.641C220.346 8.04776 219.624 7.3824 218.277 7.3824C217.059 7.3824 216.226 8.0108 216.226 8.95154C216.226 9.70931 216.708 10.1899 217.723 10.4292L219.699 10.8913C221.472 11.2979 222.635 12.3319 222.635 14.0314C222.635 16.1541 220.935 17.4663 218.591 17.4663C216.189 17.4663 214.472 16.2474 214.066 14.1414H216.025Z" fill="black"/>
<path d="M226.459 5.9375H224.539V17.2773H226.459V5.9375Z" fill="black"/>
<path d="M228.266 5.9375H237.722V7.63694H233.954V17.2773H232.032V7.63694H228.266V5.9375Z" fill="black"/>
<path d="M247.914 5.9375H257.37V7.63694H253.602V17.2773H251.681V7.63694H247.914V5.9375Z" fill="black"/>
<path d="M128.266 32.9794C128.266 35.1039 126.789 36.2304 124.426 36.2304H120.086V24.8906H124.057C126.421 24.8906 127.898 25.9432 127.898 27.9753C127.898 29.1942 127.252 30.0804 126.42 30.3762C127.491 30.7264 128.266 31.7799 128.266 32.9794ZM124.038 29.6563C125.349 29.6563 126.051 29.1572 126.051 28.0862C126.051 27.0152 125.349 26.5531 124.038 26.5531H121.951V29.6563H124.038ZM121.951 34.5688H124.389C125.681 34.5688 126.383 33.922 126.383 32.9054C126.383 31.8714 125.681 31.243 124.389 31.243H121.951V34.5688Z" fill="black"/>
<path d="M135.304 24.8906L139.662 36.2304H137.705L136.541 33.0912H132.202L131.037 36.2304H129.098L133.457 24.8906H135.304ZM132.811 31.4278H135.913L134.361 27.2351L132.811 31.4278Z" fill="black"/>
<path d="M149.466 32.9794C149.466 35.1039 147.989 36.2304 145.625 36.2304H141.285V24.8906H145.256C147.62 24.8906 149.098 25.9432 149.098 27.9753C149.098 29.1942 148.451 30.0804 147.619 30.3762C148.69 30.7264 149.466 31.7799 149.466 32.9794ZM145.237 29.6563C146.547 29.6563 147.249 29.1572 147.249 28.0862C147.249 27.0152 146.547 26.5531 145.237 26.5531H143.149V29.6563H145.237ZM143.15 34.5688H145.588C146.881 34.5688 147.582 33.922 147.582 32.9054C147.582 31.8714 146.881 31.243 145.588 31.243H143.15V34.5688Z" fill="black"/>
<path d="M158.863 24.8906V26.5891H153.34V29.5814H158.345V31.2624H153.34V34.5125H158.863V36.2313H151.457V24.8906H158.863Z" fill="black"/>
<path d="M160.949 24.8906H162.87V34.5125H168.318V36.2313H160.949V24.8906Z" fill="black"/>
<path d="M171.344 33.0876C171.714 34.251 172.674 34.7861 173.911 34.7861C175.24 34.7861 176.109 34.1586 176.109 33.1061C176.109 32.3132 175.648 31.8502 174.466 31.5739L172.545 31.1118C170.975 30.7413 169.718 29.892 169.718 28.0641C169.718 26.1438 171.289 24.7031 173.579 24.7031C176.035 24.7031 177.476 25.959 177.882 27.8423H175.961C175.666 26.9931 174.944 26.3286 173.597 26.3286C172.378 26.3286 171.546 26.9561 171.546 27.8987C171.546 28.6556 172.028 29.1352 173.043 29.3754L175.018 29.8375C176.793 30.2432 177.955 31.2773 177.955 32.9767C177.955 35.1012 176.257 36.4125 173.911 36.4125C171.509 36.4125 169.792 35.1936 169.387 33.0876H171.344Z" fill="black"/>
<path d="M188.037 32.9794C188.037 35.1039 186.559 36.2304 184.195 36.2304H179.855V24.8906H183.826C186.19 24.8906 187.668 25.9432 187.668 27.9753C187.668 29.1942 187.021 30.0804 186.189 30.3762C187.26 30.7264 188.037 31.7799 188.037 32.9794ZM183.808 29.6563C185.118 29.6563 185.822 29.1572 185.822 28.0862C185.822 27.0152 185.118 26.5531 183.808 26.5531H181.72V29.6563H183.808ZM181.72 34.5688H184.158C185.451 34.5688 186.152 33.922 186.152 32.9054C186.152 31.8714 185.451 31.243 184.158 31.243H181.72V34.5688Z" fill="black"/>
<path d="M197.433 24.8906V26.5891H191.911V29.5814H196.916V31.2624H191.911V34.5125H197.433V36.2313H190.027V24.8906H197.433Z" fill="black"/>
<path d="M201.44 31.632V36.2304H199.52V24.8906H203.896C206.241 24.8906 207.756 26.0726 207.756 28.2886C207.756 30.1913 206.648 31.2799 204.856 31.5581L208.143 36.2304H205.965L202.808 31.632H201.44ZM201.44 30.025H203.859C205.134 30.025 205.853 29.3411 205.853 28.2886C205.853 27.2351 205.134 26.5522 203.859 26.5522H201.44V30.025Z" fill="black"/>
<path d="M215.011 32.0165V30.3735H219.313V31.2597C219.313 34.3989 217.264 36.4125 214.493 36.4125C211.446 36.4125 209.156 34.0477 209.156 30.5583C209.156 27.067 211.465 24.7031 214.419 24.7031C217.023 24.7031 218.63 26.1808 219.074 28.4338H217.153C216.691 27.2149 215.935 26.4395 214.419 26.4395C212.406 26.4395 211.095 28.1575 211.095 30.5583C211.095 32.9601 212.388 34.7131 214.493 34.7131C216.21 34.7131 217.245 33.6051 217.484 32.0165H215.011Z" fill="black"/>
<path d="M122.006 49.2669L126.716 43.8359H129.136L124.555 48.9897L129.302 55.1766H126.9L123.171 50.3195L122.006 51.6484V55.1766H120.086V43.8359H122.006V49.2669Z" fill="black"/>
<path d="M134.805 55.3657C131.739 55.3657 129.578 52.89 129.578 49.5096C129.578 46.1116 131.739 43.6562 134.805 43.6562C137.87 43.6562 140.049 46.1116 140.049 49.5096C140.049 52.89 137.871 55.3657 134.805 55.3657ZM134.805 45.3733C132.81 45.3733 131.518 47.1087 131.518 49.5096C131.518 51.9113 132.809 53.6477 134.805 53.6477C136.799 53.6477 138.11 51.9113 138.11 49.5096C138.11 47.1087 136.8 45.3733 134.805 45.3733Z" fill="black"/>
<path d="M151.072 55.1748H149.594L143.796 46.9197V55.1748H141.949V43.8359H143.759L149.226 51.7038V43.8359H151.072V55.1748Z" fill="black"/>
<path d="M155.502 50.5773V55.1766H153.582V43.8359H157.959C160.303 43.8359 161.819 45.0179 161.819 47.2357C161.819 49.1385 160.711 50.2262 158.919 50.5034L162.206 55.1766H160.027L156.869 50.5773H155.502ZM155.502 48.9712H157.922C159.196 48.9712 159.916 48.2883 159.916 47.2357C159.916 46.1823 159.196 45.4993 157.922 45.4993H155.502V48.9712Z" fill="black"/>
<path d="M169.147 43.8359L173.506 55.1757H171.548L170.384 52.0374H166.045L164.881 55.1757H162.941L167.3 43.8359H169.147ZM166.653 50.374H169.755L168.204 46.1823L166.653 50.374Z" fill="black"/>
<path d="M175.129 43.8359H178.952C182.294 43.8359 184.456 46.0529 184.456 49.5063C184.456 52.9606 182.294 55.1766 178.952 55.1766H175.129V43.8359ZM178.878 53.4587C181.261 53.4587 182.535 51.9265 182.535 49.5063C182.535 47.0685 181.261 45.5363 178.878 45.5363H177.049V53.4587H178.878Z" fill="black"/>
<path d="M197.138 43.8359L199.28 52.1844L201.331 43.8359H203.177L200.259 55.1757H198.487L196.344 47.0685L194.164 55.1757H192.41L189.492 43.8359H191.376L193.425 52.1844L195.587 43.8359H197.138Z" fill="black"/>
<path d="M209.269 55.3657C206.204 55.3657 204.043 52.89 204.043 49.5096C204.043 46.1116 206.204 43.6562 209.269 43.6562C212.334 43.6562 214.514 46.1116 214.514 49.5096C214.513 52.89 212.334 55.3657 209.269 55.3657ZM209.269 45.3733C207.275 45.3733 205.982 47.1087 205.982 49.5096C205.982 51.9113 207.274 53.6477 209.269 53.6477C211.264 53.6477 212.574 51.9113 212.574 49.5096C212.574 47.1087 211.263 45.3733 209.269 45.3733Z" fill="black"/>
<path d="M216.414 43.8359H218.334V53.4587H223.783V55.1757H216.414V43.8359Z" fill="black"/>
<path d="M225.738 55.1748V43.8359H232.978V45.5354H227.659V48.8964H232.628V50.5764H227.659V55.1748H225.738Z" fill="black"/>
<path d="M243.77 5.9375L248.13 17.2819H246.17L245.007 14.1418H240.665L239.501 17.2819H237.559L241.921 5.9375H243.77ZM241.274 12.4784H244.378L242.824 8.28382L241.274 12.4784Z" fill="black"/>
<path d="M245.256 3.83911C245.256 4.4444 244.766 4.93603 244.159 4.93603C243.553 4.93603 243.062 4.4444 243.062 3.83911C243.062 3.23382 243.553 2.74219 244.159 2.74219C244.766 2.74219 245.256 3.23289 245.256 3.83911Z" fill="black"/>
<path d="M242.624 3.83911C242.624 4.4444 242.133 4.93603 241.527 4.93603C240.92 4.93603 240.43 4.4444 240.43 3.83911C240.43 3.23382 240.92 2.74219 241.527 2.74219C242.133 2.74219 242.624 3.23289 242.624 3.83911Z" fill="black"/>
</svg>
