<svg width="16" height="16" viewBox="0 0 16 16" fill="none" xmlns="http://www.w3.org/2000/svg">
<path fill-rule="evenodd" clip-rule="evenodd" d="M8.70465 10.7043C8.51715 10.8916 8.26298 10.9968 7.99798 10.9968C7.73298 10.9968 7.47881 10.8916 7.29131 10.7043L3.51931 6.93365C3.33181 6.74605 3.2265 6.49165 3.22656 6.22641C3.22663 5.96117 3.33205 5.70682 3.51965 5.51931C3.70724 5.33181 3.96164 5.2265 4.22688 5.22656C4.49212 5.22663 4.74647 5.33205 4.93398 5.51965L7.99798 8.58365L11.062 5.51965C11.2505 5.3374 11.5031 5.23648 11.7653 5.23864C12.0275 5.24079 12.2783 5.34584 12.4638 5.53116C12.6493 5.71648 12.7546 5.96725 12.757 6.22945C12.7594 6.49164 12.6587 6.74429 12.4766 6.93298L8.70465 10.7043Z" fill="black"/>
</svg>
