<svg width="12" height="12" viewBox="0 0 12 12" fill="none" xmlns="http://www.w3.org/2000/svg">
<g opacity="0.2" clip-path="url(#clip0_424_3682)">
<path fill-rule="evenodd" clip-rule="evenodd" d="M7.85221 5.64779C7.94594 5.74156 7.9986 5.86871 7.9986 6.00129C7.9986 6.13388 7.94594 6.26103 7.85221 6.35479L5.02371 9.18329C4.97758 9.23105 4.92241 9.26914 4.86141 9.29534C4.80041 9.32155 4.7348 9.33534 4.66841 9.33592C4.60202 9.3365 4.53618 9.32384 4.47473 9.2987C4.41328 9.27356 4.35746 9.23644 4.31051 9.18949C4.26356 9.14254 4.22644 9.08672 4.2013 9.02527C4.17616 8.96382 4.1635 8.89798 4.16408 8.83159C4.16466 8.7652 4.17845 8.69959 4.20466 8.63859C4.23086 8.57759 4.26895 8.52242 4.31671 8.47629L6.79171 6.00129L4.31671 3.52629C4.22563 3.43199 4.17523 3.30569 4.17637 3.17459C4.17751 3.0435 4.23009 2.91809 4.3228 2.82538C4.4155 2.73268 4.54091 2.6801 4.67201 2.67896C4.8031 2.67782 4.92941 2.72821 5.02371 2.81929L7.85221 5.64779Z" fill="white"/>
</g>
<defs>
<clipPath id="clip0_424_3682">
<rect width="12" height="12" fill="white" transform="translate(0 12) rotate(-90)"/>
</clipPath>
</defs>
</svg>
