<svg width="16" height="16" viewBox="0 0 16 16" fill="none" xmlns="http://www.w3.org/2000/svg">
<g opacity="0.2">
<path d="M13.3262 8.15833C13.2835 8.1587 13.2423 8.14264 13.2111 8.11354L13.0198 7.92231L12.1663 7.06875V8.27586V12.6665C12.1663 12.8875 12.0785 13.0995 11.9222 13.2558C11.7659 13.4121 11.554 13.4999 11.333 13.4999H9.33295C9.28875 13.4999 9.24636 13.4823 9.2151 13.451C9.18385 13.4198 9.16629 13.3774 9.16629 13.3332V11.3332V10.8332H8.66629H7.33295H6.83295V11.3332V13.3332C6.83295 13.3774 6.81539 13.4198 6.78414 13.451C6.75288 13.4823 6.71049 13.4999 6.66629 13.4999H4.66629C4.44527 13.4999 4.23331 13.4121 4.07703 13.2558C3.92075 13.0995 3.83295 12.8875 3.83295 12.6665V8.27586V7.06875L2.9794 7.9223L2.78816 8.11354C2.75697 8.14264 2.71576 8.1587 2.67303 8.15833C2.62933 8.15795 2.58753 8.14042 2.55663 8.10952C2.52573 8.07862 2.5082 8.03681 2.50782 7.99311C2.50745 7.95038 2.5235 7.90918 2.5526 7.87799L3.88184 6.54874L7.88179 2.5488C7.8818 2.54878 7.88182 2.54876 7.88184 2.54874C7.91309 2.51753 7.95545 2.5 7.99962 2.5C8.04379 2.5 8.08615 2.51753 8.1174 2.54874C8.11742 2.54876 8.11744 2.54878 8.11745 2.5488L12.1174 6.54874L13.4466 7.87798C13.4757 7.90917 13.4918 7.95038 13.4914 7.99311C13.491 8.03681 13.4735 8.07861 13.4426 8.10952C13.4117 8.14042 13.3699 8.15795 13.3262 8.15833Z" stroke="white"/>
</g>
</svg>
