<svg width="185" height="34" viewBox="0 0 185 34" fill="none" xmlns="http://www.w3.org/2000/svg">
<path d="M61.0117 0.273438C57.7216 0.273437 54.5054 1.25407 51.7697 3.09133C49.0341 4.92859 46.9019 7.53996 45.6428 10.5952C44.3838 13.6505 44.0543 17.0124 44.6962 20.2558C45.3381 23.4993 46.9224 26.4786 49.2489 28.8169C51.5754 31.1553 54.5395 32.7478 57.7664 33.393C60.9933 34.0381 64.3381 33.707 67.3778 32.4415C70.4174 31.1759 73.0155 29.0328 74.8434 26.2832C76.6713 23.5335 77.6469 20.3008 77.6469 16.9938C77.6469 14.7981 77.2167 12.6238 76.3807 10.5952C75.5447 8.5666 74.3193 6.72336 72.7746 5.17073C71.2299 3.6181 69.396 2.38648 67.3778 1.5462C65.3595 0.705923 63.1963 0.273437 61.0117 0.273438ZM61.0117 26.7864C59.0848 26.7864 57.2012 26.212 55.599 25.136C53.9969 24.06 52.7481 22.5306 52.0107 20.7413C51.2733 18.9519 51.0804 16.983 51.4563 15.0834C51.8322 13.1838 52.7601 11.439 54.1227 10.0695C55.4852 8.69996 57.2212 7.76732 59.1111 7.38947C61.0009 7.01162 62.9599 7.20555 64.7401 7.94672C66.5203 8.68789 68.0419 9.94303 69.1124 11.5534C70.183 13.1638 70.7544 15.0571 70.7544 16.9938C70.7544 19.591 69.7279 22.0817 67.9008 23.9182C66.0737 25.7547 63.5957 26.7864 61.0117 26.7864Z" fill="#FFBD00"/>
<path d="M97.5973 20.5555H84.3873V32.1246H97.5973V20.5555Z" fill="#FFBD00"/>
<path d="M97.5973 1.87144H84.3873V13.4406H97.5973V1.87144Z" fill="#FFBD00"/>
<path d="M177.957 19.8244C177.777 19.884 177.588 19.9127 177.399 19.9095C177.064 19.8894 176.738 19.7933 176.445 19.6284C176.152 19.4635 175.9 19.2341 175.708 18.9574L173.872 16.6963L176.24 13.7636H177.847L175.513 16.6453L176.756 18.1244C176.835 18.2421 176.941 18.3396 177.064 18.4089C177.188 18.4783 177.325 18.5177 177.467 18.5239C177.642 18.5226 177.814 18.485 177.974 18.4134L177.957 19.8244Z" fill="black"/>
<path d="M173.737 13.7381H172.35V19.7819H173.737V13.7381Z" fill="black"/>
<path d="M166.388 18.4729C166.588 18.5747 166.807 18.6326 167.031 18.6429C167.146 18.6489 167.262 18.6274 167.367 18.5801C167.473 18.5329 167.566 18.4612 167.639 18.3709L165.356 13.7381H166.853L168.392 16.8493H168.443L169.703 13.7381H171.191L168.976 18.5069C168.853 18.9111 168.607 19.2668 168.274 19.5243C167.94 19.7818 167.535 19.9283 167.115 19.9434C166.875 19.9505 166.635 19.9189 166.405 19.8499L166.388 18.4729Z" fill="black"/>
<path d="M162.743 13.7551H161.254L158.835 19.8244H160.222L160.747 18.5239H163.225L163.749 19.8244H165.187L162.743 13.7551ZM161.195 17.3933L161.982 15.4467L162.768 17.3933H161.195Z" fill="black"/>
<path d="M143.469 13.7551H142.192L139.333 17.7418H139.283V13.7551H137.887V19.7819H139.181L142.023 15.7867H142.065V19.7819H143.469V13.7551Z" fill="black"/>
<path d="M175.209 1.65044C174.594 1.65715 173.996 1.8463 173.489 2.19408C172.981 2.54186 172.588 3.03273 172.357 3.60488C172.127 4.17704 172.07 4.80491 172.194 5.40946C172.318 6.01401 172.617 6.56821 173.054 7.0023C173.49 7.43639 174.045 7.73095 174.648 7.84893C175.25 7.9669 175.874 7.903 176.441 7.66527C177.008 7.42754 177.492 7.0266 177.832 6.51294C178.173 5.99928 178.355 5.39585 178.355 4.77861C178.356 4.36461 178.275 3.95453 178.117 3.57225C177.959 3.18997 177.726 2.84314 177.434 2.55199C177.141 2.26084 176.793 2.03118 176.411 1.87639C176.029 1.72161 175.62 1.6448 175.209 1.65044ZM175.209 6.61471C174.975 6.61546 174.743 6.56741 174.528 6.4736C174.314 6.37979 174.121 6.24225 173.962 6.06968C173.803 5.89712 173.681 5.69327 173.605 5.47105C173.528 5.24882 173.498 5.01304 173.517 4.77861C173.5 4.53896 173.533 4.29844 173.613 4.072C173.693 3.84555 173.818 3.63804 173.981 3.46236C174.144 3.28667 174.341 3.14658 174.56 3.0508C174.78 2.95501 175.016 2.90559 175.255 2.90559C175.494 2.90559 175.73 2.95501 175.95 3.0508C176.169 3.14658 176.366 3.28667 176.529 3.46236C176.692 3.63804 176.817 3.84555 176.897 4.072C176.977 4.29844 177.01 4.53896 176.993 4.77861C177.013 5.02112 176.981 5.26508 176.898 5.49399C176.816 5.72291 176.686 5.93144 176.517 6.1055C176.348 6.27956 176.144 6.4151 175.918 6.50294C175.692 6.59079 175.45 6.62891 175.209 6.61471Z" fill="black"/>
<path d="M169.83 4.52376C170.025 4.40703 170.188 4.24338 170.305 4.04752C170.421 3.85166 170.488 3.62973 170.498 3.4017C170.498 2.40714 169.652 1.78661 168.35 1.78661H166.236V7.79643H168.68C169.991 7.79643 170.836 7.07389 170.836 5.93483C170.824 5.62659 170.722 5.32875 170.543 5.07802C170.364 4.8273 170.116 4.63463 169.83 4.52376ZM167.631 2.94267H168.248C168.73 2.94267 169.094 3.14668 169.094 3.5717C169.094 3.99673 168.815 4.21774 168.367 4.21774H167.639L167.631 2.94267ZM168.57 6.66587H167.631V5.22929H168.587C168.685 5.21859 168.785 5.22883 168.88 5.25936C168.975 5.28988 169.062 5.34 169.136 5.40649C169.21 5.47298 169.269 5.55435 169.31 5.64536C169.351 5.73637 169.373 5.83498 169.373 5.93483C169.372 6.03588 169.349 6.13545 169.306 6.22711C169.264 6.31877 169.203 6.40049 169.127 6.46698C169.052 6.53347 168.963 6.58326 168.867 6.61313C168.771 6.64299 168.67 6.65227 168.57 6.64037V6.66587Z" fill="black"/>
<path d="M142.75 1.7611H146.446V3.00217H144.154V4.07322H146.302V5.31429H144.154V6.55536H146.505V7.79642H142.75V1.7611Z" fill="black"/>
<path d="M136.34 1.7611H141.312V3.01917H139.519V7.79642H138.116V3.01917H136.34V1.7611Z" fill="black"/>
<path d="M124.034 5.26329H121.413V7.79642H120.017V1.7611H121.413V4.02222H124.034V1.7611H125.43V7.79642H124.034V5.26329Z" fill="black"/>
<path d="M118.004 1.7611H116.601V7.78792H118.004V1.7611Z" fill="black"/>
<path d="M113.235 7.79642V4.18373H113.184L111.746 6.86137H110.841L109.387 4.18373H109.336V7.79642H107.957V1.7611H109.353L111.298 5.23779L113.235 1.7611H114.596V7.79642H113.235Z" fill="black"/>
<path d="M128.846 1.7611H127.443V7.78792H128.846V1.7611Z" fill="black"/>
<path d="M150.641 1.76104H148.357V7.79636H149.761V5.77325H150.607C150.88 5.78578 151.154 5.7437 151.411 5.64943C151.668 5.55516 151.904 5.41057 152.106 5.22403C152.307 5.03748 152.469 4.81268 152.584 4.56262C152.698 4.31255 152.762 4.04219 152.772 3.76714C152.763 3.49472 152.701 3.2267 152.589 2.97841C152.477 2.73012 152.318 2.50642 152.12 2.32011C151.922 2.13379 151.689 1.98852 151.436 1.89259C151.182 1.79666 150.912 1.75196 150.641 1.76104ZM150.539 4.52368H149.778V2.9766H150.539C150.648 2.9657 150.758 2.97819 150.861 3.01324C150.965 3.04829 151.06 3.1051 151.14 3.17988C151.22 3.25466 151.283 3.34571 151.325 3.44697C151.367 3.54823 151.388 3.65737 151.385 3.76714C151.381 3.87327 151.355 3.97745 151.31 4.07346C151.265 4.16948 151.201 4.25535 151.122 4.32596C151.043 4.39658 150.951 4.45048 150.851 4.48445C150.75 4.51842 150.644 4.53176 150.539 4.52368Z" fill="black"/>
<path d="M159.817 1.7611H164.789V3.01917H162.996V7.79642H161.593V3.01917H159.817V1.7611Z" fill="black"/>
<path d="M111.205 13.6447C110.591 13.6514 109.992 13.8408 109.484 14.1889C108.977 14.5371 108.583 15.0284 108.353 15.6011C108.123 16.1737 108.067 16.802 108.191 17.4068C108.316 18.0116 108.616 18.5658 109.053 18.9995C109.49 19.4333 110.046 19.7272 110.649 19.8442C111.252 19.9612 111.877 19.8961 112.443 19.657C113.01 19.418 113.493 19.0157 113.833 18.501C114.172 17.9862 114.353 17.3819 114.351 16.7643C114.351 16.3511 114.269 15.9419 114.111 15.5606C113.952 15.1793 113.72 14.8335 113.427 14.5432C113.134 14.253 112.787 14.0241 112.406 13.8698C112.024 13.7156 111.616 13.639 111.205 13.6447ZM111.205 18.6089C110.971 18.6097 110.739 18.5616 110.525 18.4678C110.31 18.374 110.117 18.2365 109.958 18.0639C109.799 17.8913 109.678 17.6875 109.601 17.4653C109.525 17.243 109.495 17.0073 109.514 16.7728C109.497 16.5332 109.529 16.2927 109.609 16.0662C109.689 15.8398 109.814 15.6323 109.977 15.4566C110.14 15.2809 110.338 15.1408 110.557 15.045C110.776 14.9492 111.012 14.8998 111.251 14.8998C111.49 14.8998 111.727 14.9492 111.946 15.045C112.165 15.1408 112.363 15.2809 112.526 15.4566C112.689 15.6323 112.814 15.8398 112.894 16.0662C112.973 16.2927 113.006 16.5332 112.989 16.7728C113.009 17.0154 112.977 17.2593 112.895 17.4882C112.813 17.7171 112.683 17.9257 112.514 18.0997C112.344 18.2738 112.14 18.4093 111.914 18.4972C111.689 18.585 111.447 18.6231 111.205 18.6089Z" fill="black"/>
<path d="M125.92 16.4923C126.116 16.3761 126.28 16.2126 126.396 16.0166C126.513 15.8206 126.579 15.5984 126.588 15.3702C126.588 14.3757 125.743 13.7551 124.432 13.7551H122.318V19.8244H124.762C126.106 19.8244 126.918 19.0679 126.918 17.9628C126.918 17.6454 126.823 17.3353 126.645 17.073C126.467 16.8107 126.214 16.6083 125.92 16.4923ZM123.721 14.9112H124.322C124.804 14.9112 125.168 15.1152 125.168 15.5402C125.168 15.9652 124.889 16.1863 124.44 16.1863H123.713L123.721 14.9112ZM124.669 18.6344H123.721V17.2233H124.677C124.776 17.2126 124.876 17.2229 124.97 17.2534C125.065 17.2839 125.152 17.334 125.226 17.4005C125.3 17.467 125.36 17.5484 125.401 17.6394C125.442 17.7304 125.463 17.829 125.464 17.9288C125.461 18.0292 125.437 18.1278 125.394 18.2184C125.352 18.3091 125.29 18.3898 125.215 18.4554C125.139 18.5209 125.051 18.57 124.955 18.5993C124.86 18.6287 124.759 18.6377 124.66 18.6259L124.669 18.6344Z" fill="black"/>
<path d="M156.29 17.2573H153.677V19.7819H152.273V13.7551H153.677V16.0162H156.29V13.7551H157.694V19.7819H156.29V17.2573Z" fill="black"/>
<path d="M129.988 13.7551H128.584V19.7819H129.988V13.7551Z" fill="black"/>
<path d="M131.477 13.7551H136.449V15.0047H134.657V19.7819H133.253V15.0047H131.477V13.7551Z" fill="black"/>
<path d="M120.491 18.2179C119.991 18.4835 119.433 18.6208 118.867 18.6175C118.624 18.6342 118.38 18.598 118.152 18.5113C117.925 18.4246 117.718 18.2894 117.547 18.1151C117.376 17.9407 117.244 17.7313 117.161 17.5011C117.078 17.2709 117.046 17.0254 117.066 16.7814C117.046 16.5404 117.078 16.2979 117.159 16.0703C117.24 15.8426 117.369 15.635 117.536 15.4612C117.703 15.2874 117.906 15.1515 118.129 15.0625C118.353 14.9736 118.593 14.9336 118.833 14.9453C119.392 14.9423 119.942 15.0827 120.432 15.3533V13.9337C119.926 13.7529 119.395 13.6553 118.859 13.6447C118.442 13.6345 118.028 13.7081 117.64 13.861C117.252 14.014 116.898 14.2433 116.6 14.5354C116.301 14.8276 116.064 15.1768 115.901 15.5625C115.739 15.9481 115.654 16.3625 115.653 16.7814C115.647 17.2052 115.727 17.6259 115.889 18.0172C116.052 18.4086 116.292 18.7622 116.596 19.0564C116.899 19.3505 117.26 19.5787 117.655 19.7269C118.05 19.8752 118.471 19.9402 118.892 19.918C119.438 19.9185 119.98 19.8206 120.491 19.629V18.2179Z" fill="black"/>
<path d="M148.577 13.7551H147.173V19.7819H148.577V13.7551Z" fill="black"/>
<path d="M185.002 13.7551H183.716L180.858 17.7418H180.816V13.7551H179.412V19.7819H180.706L183.547 15.7867H183.598V19.7819H185.002V13.7551Z" fill="black"/>
<path d="M135.316 6.22372C134.816 6.48866 134.258 6.62586 133.692 6.62324C133.449 6.63999 133.206 6.60377 132.978 6.51706C132.75 6.43035 132.543 6.29519 132.372 6.12084C132.201 5.94649 132.07 5.73706 131.987 5.50687C131.904 5.27668 131.871 5.03118 131.891 4.78714C131.872 4.54909 131.903 4.30967 131.982 4.08447C132.061 3.85927 132.187 3.65335 132.35 3.48012C132.514 3.3069 132.712 3.17025 132.931 3.07909C133.151 2.98793 133.387 2.9443 133.625 2.95105C134.184 2.94991 134.735 3.09334 135.223 3.36757V1.97349C134.712 1.77726 134.172 1.66809 133.625 1.65048C133.208 1.64029 132.794 1.71383 132.406 1.86679C132.018 2.01975 131.664 2.24904 131.366 2.54121C131.067 2.83339 130.83 3.18255 130.667 3.56823C130.505 3.9539 130.421 4.36831 130.42 4.78714C130.414 5.21215 130.496 5.63372 130.659 6.02569C130.823 6.41766 131.065 6.77168 131.37 7.06579C131.676 7.35989 132.038 7.58781 132.434 7.73541C132.831 7.88301 133.253 7.94713 133.676 7.92381C134.235 7.92919 134.792 7.83123 135.316 7.6348V6.22372Z" fill="black"/>
<path d="M158.751 6.22374C158.251 6.48901 157.693 6.62623 157.127 6.62327C156.884 6.64001 156.64 6.60379 156.413 6.51708C156.185 6.43037 155.978 6.29522 155.807 6.12087C155.636 5.94652 155.504 5.73708 155.421 5.5069C155.338 5.27671 155.306 5.0312 155.326 4.78717C155.306 4.54616 155.338 4.30373 155.419 4.07607C155.5 3.84842 155.629 3.64077 155.796 3.46699C155.963 3.29321 156.166 3.1573 156.389 3.06834C156.613 2.97937 156.853 2.93939 157.093 2.95107C157.653 2.94994 158.203 3.09337 158.692 3.36759V1.97352C158.186 1.79193 157.655 1.69432 157.119 1.6845C156.706 1.67549 156.295 1.74877 155.91 1.90014C155.525 2.0515 155.174 2.27794 154.877 2.56639C154.58 2.85485 154.343 3.1996 154.179 3.58076C154.015 3.96192 153.927 4.37194 153.922 4.78717C153.917 5.20992 153.998 5.62925 154.16 6.01942C154.322 6.40959 154.561 6.76237 154.864 7.05611C155.166 7.34984 155.525 7.57833 155.919 7.72754C156.313 7.87676 156.732 7.94356 157.153 7.92384C157.698 7.92426 158.24 7.82637 158.751 7.63482V6.22374Z" fill="black"/>
<path d="M120.804 31.8102C120.624 31.8697 120.435 31.8985 120.246 31.8952C119.91 31.8751 119.584 31.779 119.291 31.6141C118.998 31.4492 118.746 31.2198 118.554 30.9431L116.711 28.6905L119.079 25.7578H120.685L118.351 28.6395L119.611 30.1696C119.69 30.2878 119.795 30.3856 119.919 30.4551C120.042 30.5245 120.18 30.5636 120.322 30.5691C120.497 30.5686 120.67 30.5309 120.829 30.4586L120.804 31.8102Z" fill="black"/>
<path d="M116.837 25.7578H115.45V31.8017H116.837V25.7578Z" fill="black"/>
<path d="M109.488 30.4841C109.688 30.5861 109.907 30.6441 110.131 30.6541C110.246 30.6611 110.361 30.641 110.466 30.5952C110.572 30.5494 110.666 30.4794 110.74 30.3906L108.456 25.7749H109.945L111.484 28.886H111.535L112.795 25.7749H114.283L112.068 30.5436C111.945 30.9479 111.699 31.3035 111.366 31.561C111.032 31.8185 110.627 31.965 110.207 31.9802C109.967 31.9875 109.727 31.9559 109.497 31.8867L109.488 30.4841Z" fill="black"/>
<path d="M130.927 25.7749H129.438L127.02 31.8017H128.407L128.931 30.5011H131.384L131.908 31.8017H133.346L130.927 25.7749ZM129.396 29.4046L130.183 27.4579L130.969 29.4046H129.396Z" fill="black"/>
<path d="M141.904 29.2685H139.291V31.8017H137.887V25.7664H139.291V28.0275H141.904V25.7664H143.308V31.8017H141.904V29.2685Z" fill="black"/>
<path d="M135.883 25.7664H134.479V31.7932H135.883V25.7664Z" fill="black"/>
<path d="M150.903 25.7664H149.617L146.767 29.7616H146.716V25.7664H145.313V31.8017H146.607L149.457 27.798H149.499V31.8017H150.903V25.7664Z" fill="black"/>
<path d="M124.55 25.7748H122.267V31.8017H123.671V29.7701H124.516C124.794 29.7958 125.074 29.763 125.338 29.6739C125.602 29.5848 125.845 29.4412 126.051 29.2524C126.257 29.0636 126.421 28.8338 126.534 28.5775C126.647 28.3212 126.705 28.0441 126.705 27.764C126.705 27.4838 126.647 27.2067 126.534 26.9504C126.421 26.6941 126.257 26.4643 126.051 26.2755C125.845 26.0867 125.602 25.9432 125.338 25.854C125.074 25.7649 124.794 25.7321 124.516 25.7578L124.55 25.7748ZM124.432 28.5715H123.671V26.9734H124.432C124.541 26.9625 124.65 26.975 124.754 27.01C124.857 27.0451 124.952 27.1019 125.032 27.1767C125.112 27.2515 125.176 27.3425 125.218 27.4438C125.26 27.545 125.281 27.6542 125.278 27.764C125.278 27.873 125.256 27.9809 125.213 28.0809C125.169 28.1809 125.106 28.2708 125.027 28.3451C124.947 28.4193 124.853 28.4763 124.751 28.5123C124.649 28.5483 124.54 28.5627 124.432 28.5545V28.5715Z" fill="black"/>
<path d="M134.843 24.0493H133.718V25.1034H134.843V24.0493Z" fill="black"/>
<path d="M136.644 24.0493H135.519V25.1034H136.644V24.0493Z" fill="black"/>
<path fill-rule="evenodd" clip-rule="evenodd" d="M9.89683 33.6548L9.82071 33.5698C9.57576 33.1768 9.25342 32.8384 8.87352 32.5752C8.19506 32.0574 7.59658 31.4415 7.09752 30.7476C6.45575 29.863 5.97737 28.8697 5.68517 27.815C5.63005 27.6248 5.58489 27.4319 5.54986 27.2369C5.54986 27.1009 5.47374 27.0499 5.32152 27.0499H0.247229C0.0273438 27.0499 0.0273438 27.0499 0.0273438 26.8374V3.03614C0.230882 3.14443 0.428499 3.26361 0.619344 3.39316C1.07603 3.73318 1.54117 4.0817 1.98094 4.44722C2.59843 4.98486 3.13915 5.60559 3.5878 6.29182C4.257 7.28801 4.74387 8.39629 5.02552 9.56449C5.25607 10.7532 5.42264 11.9535 5.52449 13.1602C5.71054 14.5713 5.86277 15.9823 6.03192 17.4104C6.03192 17.4954 6.03192 17.5889 6.03192 17.6739C6.03192 17.7589 6.03192 17.8694 5.8374 17.8949C5.58215 17.8984 5.32869 17.9385 5.08471 18.0139C4.84969 18.1113 4.6404 18.2622 4.47333 18.4548C4.30627 18.6474 4.18601 18.8764 4.12205 19.1236C4.05808 19.3709 4.05216 19.6298 4.10474 19.8797C4.15733 20.1297 4.26698 20.364 4.42506 20.5641C4.69178 20.8846 5.06374 21.0986 5.47374 21.1676L6.2518 21.3291C6.28885 21.3432 6.32989 21.3421 6.36621 21.3263C6.40253 21.3104 6.43126 21.2809 6.44631 21.2441C6.7846 20.5556 7.16517 19.8755 7.46117 19.17C7.75717 18.4645 8.00243 17.7164 8.23923 16.9769C8.69656 15.7051 8.96998 14.374 9.05112 13.0242C9.05112 12.0126 9.05112 10.9926 8.99192 9.97251C8.9158 8.46793 8.80586 6.96335 8.72129 5.45877C8.72129 4.79574 8.65363 4.1327 8.679 3.47817C8.71255 2.49821 9.0496 1.55321 9.64312 0.775021C9.9222 0.392501 9.90529 0.477505 10.1336 0.775021C10.712 1.50308 11.0491 2.3948 11.0977 3.32516C11.0977 4.1752 11.0977 5.02525 11.0385 5.8753C10.9455 7.7964 10.8187 9.709 10.7256 11.6301C10.6533 13.3187 10.8736 15.0071 11.3768 16.6199C11.671 17.6498 12.0355 18.6581 12.4678 19.6375C12.7131 20.1646 13.0006 20.6831 13.2712 21.2016C13.2788 21.2262 13.2913 21.2489 13.3079 21.2683C13.3246 21.2878 13.3451 21.3036 13.3681 21.3148C13.3911 21.3259 13.4162 21.3322 13.4417 21.3332C13.4672 21.3342 13.4927 21.3299 13.5165 21.3206C13.8991 21.2481 14.2774 21.1545 14.6497 21.0401C14.9458 20.9369 15.203 20.7443 15.3861 20.4888C15.5693 20.2332 15.6695 19.927 15.6731 19.612C15.7037 19.2332 15.6012 18.8555 15.3833 18.5448C15.1654 18.2342 14.8459 18.0102 14.4806 17.9119C14.277 17.8737 14.0704 17.8538 13.8632 17.8524H13.6856C13.7364 17.4274 13.7871 17.0024 13.8379 16.6199C14.007 15.1833 14.1677 13.7382 14.3537 12.3016C14.433 11.3235 14.5799 10.3521 14.7935 9.39448C15.1464 8.05264 15.768 6.7973 16.6203 5.70529C16.8809 5.348 17.1633 5.00733 17.466 4.68523C18.1259 4.0218 18.8711 3.45004 19.6817 2.98514H19.7748C19.7748 3.05314 19.7748 3.11265 19.7748 3.17215C19.7748 9.86484 19.7748 16.5575 19.7748 23.2502V26.7779C19.7748 26.9989 19.7748 26.9989 19.5633 26.9989H14.4383C14.2861 26.9989 14.2269 26.9989 14.1931 27.2029C14.0657 27.937 13.8439 28.6514 13.5334 29.3281C13.1831 30.0494 12.7395 30.7211 12.2141 31.3257C11.7486 31.848 11.2362 32.326 10.6833 32.7537C10.4496 32.9702 10.2346 33.2062 10.0406 33.4593C9.98796 33.5208 9.9399 33.5862 9.89683 33.6548ZM1.6934 6.46183H1.6342V6.69984C1.6342 10.5534 1.6342 14.4041 1.6342 18.252C1.6342 18.354 1.6342 18.4645 1.6342 18.5665C1.6342 18.6685 1.6342 18.6855 1.7526 18.6855H2.42917C2.45253 18.6891 2.47636 18.688 2.49928 18.6822C2.5222 18.6764 2.54374 18.6661 2.56264 18.6518C2.58154 18.6376 2.59743 18.6197 2.60936 18.5992C2.6213 18.5787 2.62904 18.556 2.63214 18.5325C2.75468 18.1269 2.95606 17.7497 3.22462 17.4229C3.49319 17.096 3.82359 16.826 4.19671 16.6284C4.23156 16.6089 4.25885 16.5781 4.27419 16.5411C4.28953 16.5041 4.29203 16.463 4.28129 16.4244C4.28129 16.2204 4.23054 16.0078 4.20517 15.7953C4.02757 14.2567 3.83306 12.7267 3.66391 11.1881C3.5089 9.68057 2.96684 8.23942 2.09089 7.00586C1.95557 6.82735 1.8118 6.64884 1.6934 6.46183ZM18.1595 18.694V6.47033H18.1003C17.9227 6.72534 17.7366 6.97185 17.559 7.22687C16.8136 8.31051 16.3379 9.55822 16.172 10.8651C15.9352 12.7182 15.7323 14.5798 15.5039 16.4329C15.5039 16.5689 15.5547 16.6284 15.6477 16.6879C15.8616 16.8193 16.0652 16.9671 16.2566 17.1299C16.696 17.5292 17.0203 18.0402 17.1953 18.609C17.2038 18.6315 17.2173 18.6517 17.235 18.6679C17.2526 18.6842 17.2738 18.696 17.2968 18.7025L18.1595 18.694ZM1.61729 22.8592C1.61729 23.6412 1.61729 24.4148 1.61729 25.1883C1.61729 25.3158 1.61729 25.3583 1.78643 25.3583H5.16929C5.3046 25.3583 5.35534 25.3583 5.3638 25.1883C5.38921 24.4593 5.49414 23.7352 5.67671 23.0292C5.67671 22.9357 5.67671 22.9017 5.58369 22.8932L5.03397 22.7657C4.46522 22.6237 3.94514 22.33 3.5286 21.9157C3.10201 21.536 2.78381 21.0489 2.60677 20.5046C2.5985 20.4586 2.57261 20.4177 2.53466 20.3906C2.4967 20.3636 2.44972 20.3526 2.4038 20.3601C2.20083 20.3601 1.99786 20.3601 1.79489 20.3601C1.59192 20.3601 1.61729 20.3601 1.61729 20.5386C1.62574 21.3291 1.61729 22.0942 1.61729 22.8592ZM16.2904 25.3583C16.8486 25.3583 17.3983 25.3583 17.9819 25.3583C18.1425 25.3583 18.2017 25.3073 18.1933 25.1458C18.1933 25.1458 18.1933 25.0863 18.1933 25.0523C18.1933 24.4148 18.1933 23.7858 18.1933 23.1482C18.1933 22.2982 18.1933 21.3886 18.1933 20.5131C18.1933 20.4026 18.1933 20.3771 18.058 20.3771H17.5083C17.2461 20.3771 17.2461 20.3771 17.1615 20.6236C17.0135 21.0676 16.7711 21.4739 16.4513 21.8145C16.1315 22.155 15.7419 22.4216 15.3094 22.5957C14.9699 22.7166 14.6223 22.8132 14.2692 22.8847C14.1592 22.8847 14.1254 22.9612 14.1592 23.0717C14.3358 23.7698 14.4351 24.4853 14.4552 25.2053C14.4552 25.3328 14.506 25.3753 14.6328 25.3753L16.2904 25.3583ZM8.087 21.7541C8.35763 21.8902 8.61134 22.0007 8.8566 22.1367C9.20091 22.3253 9.50997 22.5727 9.76997 22.8677C9.89683 23.0037 9.89683 23.0207 10.0068 22.8677C10.3183 22.5082 10.7015 22.2186 11.1316 22.0177C11.3092 21.9327 11.4952 21.8562 11.7067 21.7626C10.9625 20.4792 10.3558 19.12 9.89683 17.7079C9.4391 19.1205 8.83237 20.4798 8.087 21.7626V21.7541ZM12.6031 27.0159H10.9117C10.7595 27.0159 10.7172 27.0159 10.7172 27.2029C10.7172 28.2485 10.7172 29.2856 10.7172 30.3311C10.7172 30.3736 10.7172 30.4246 10.7172 30.5181C11.6391 29.5395 12.2894 28.3348 12.6031 27.0244V27.0159ZM7.19054 27.0159C7.33432 28.0275 8.50986 30.2121 9.05112 30.4161C9.05276 30.3963 9.05276 30.3764 9.05112 30.3566C9.05112 29.2685 9.05112 28.1805 9.05112 27.1009C9.05112 26.9819 8.99192 26.9649 8.89043 26.9649H7.199L7.19054 27.0159ZM8.03626 25.3158H8.88197C9.07649 25.3158 9.10186 25.3158 9.05957 25.1118C9.01139 24.8188 8.92612 24.5331 8.80586 24.2618C8.67193 24.0064 8.48342 23.7841 8.25385 23.6106C8.02428 23.4372 7.75935 23.317 7.47809 23.2587C7.35969 23.2587 7.28357 23.2587 7.24974 23.3947C7.1046 23.9677 7.02235 24.5549 7.00449 25.1458C7.00449 25.2563 7.00449 25.2903 7.14826 25.2903L8.03626 25.3158ZM12.6369 25.3158C12.7384 25.3158 12.7892 25.3158 12.7892 25.1713C12.782 24.5969 12.7024 24.0256 12.5524 23.4712C12.4932 23.2587 12.4678 23.2502 12.2564 23.3097C11.8416 23.419 11.4717 23.657 11.1992 23.9898C10.9218 24.3271 10.7562 24.7432 10.7256 25.1798C10.7256 25.2818 10.7256 25.3243 10.8609 25.3158H12.6369Z" fill="#FFBD00"/>
<path d="M33.0778 2.01599H32.2321V32.3711H33.0778V2.01599Z" fill="#FFBD00"/>
</svg>
