<svg width="255" height="40" viewBox="0 0 255 40" fill="none" xmlns="http://www.w3.org/2000/svg">
<path d="M136.418 6.64414V13.9643H134.98V8.5127L132.966 13.9643H131.432L129.399 8.45491V13.9643H127.961V6.64414H130.167L132.199 12.192L134.251 6.64414H136.418Z" fill="black"/>
<path d="M138.316 7.41468V6.18182H139.812V7.41468H138.316ZM138.374 13.9643V8.18522H139.754V13.9643H138.374Z" fill="black"/>
<path d="M145.392 8.18522H146.773V13.9643H145.392V11.6527H142.899V13.9643H141.518V8.18522H142.899V10.3813H145.392V8.18522Z" fill="black"/>
<path d="M148.46 7.41468V6.18182H149.956V7.41468H148.46ZM148.518 13.9643V8.18522H149.898V13.9643H148.518Z" fill="black"/>
<path d="M154.194 14.0606C152.449 14.0606 151.26 12.8663 151.26 11.0748C151.26 9.28325 152.449 8.08891 154.194 8.08891C155.478 8.08891 156.495 8.7246 156.821 9.82262L155.498 10.2272C155.287 9.61073 154.826 9.24472 154.174 9.24472C153.254 9.24472 152.679 9.95747 152.679 11.0748C152.679 12.192 153.254 12.9048 154.174 12.9048C154.826 12.9048 155.287 12.5388 155.517 11.9223L156.821 12.3269C156.495 13.4249 155.478 14.0606 154.194 14.0606Z" fill="black"/>
<path d="M162.573 8.18522V9.43735H160.56V13.9643H159.179V9.43735H157.147V8.18522H162.573Z" fill="black"/>
<path d="M164.28 11.5178C164.414 12.3847 164.99 12.9048 165.891 12.9048C166.639 12.9048 167.176 12.6158 167.521 12.2113L168.384 13.0396C167.866 13.6368 167.041 14.0606 165.891 14.0606C163.916 14.0606 162.899 12.7892 162.899 11.0748C162.899 9.30251 164.05 8.08891 165.795 8.08891C167.502 8.08891 168.614 9.26398 168.614 11.0748C168.614 11.2096 168.614 11.3252 168.556 11.5178H164.28ZM165.795 9.20619C164.99 9.20619 164.453 9.68778 164.299 10.4968H167.214C167.06 9.66852 166.543 9.20619 165.795 9.20619Z" fill="black"/>
<path d="M173.062 8.08891C174.558 8.08891 175.536 9.26398 175.536 11.0748C175.536 12.8663 174.52 14.0606 173.062 14.0606C172.295 14.0606 171.663 13.7716 171.222 13.2323V15.8906H169.841V8.18522H171.068L171.145 9.05208C171.586 8.43565 172.257 8.08891 173.062 8.08891ZM172.641 12.9048C173.561 12.9048 174.136 12.192 174.136 11.0748C174.136 9.95747 173.561 9.24472 172.641 9.24472C171.72 9.24472 171.164 9.95747 171.164 11.0748C171.164 12.192 171.72 12.9048 172.641 12.9048Z" fill="black"/>
<path d="M179.314 14.0606C177.569 14.0606 176.38 12.8663 176.38 11.0748C176.38 9.28325 177.569 8.08891 179.314 8.08891C180.598 8.08891 181.615 8.7246 181.941 9.82262L180.618 10.2272C180.407 9.61073 179.947 9.24472 179.295 9.24472C178.374 9.24472 177.799 9.95747 177.799 11.0748C177.799 12.192 178.374 12.9048 179.295 12.9048C179.947 12.9048 180.407 12.5388 180.637 11.9223L181.941 12.3269C181.615 13.4249 180.598 14.0606 179.314 14.0606Z" fill="black"/>
<path d="M187.693 8.18522V9.43735H185.68V13.9643H184.299V9.43735H182.267V8.18522H187.693Z" fill="black"/>
<path d="M192.66 10.9977C193.293 11.2096 193.638 11.6912 193.638 12.3847C193.638 13.4056 192.852 13.9643 191.548 13.9643H188.71V8.18522H191.337C192.679 8.18522 193.485 8.66681 193.485 9.70704C193.485 10.3427 193.159 10.7858 192.66 10.9977ZM190.014 9.22546V10.5161H191.337C191.893 10.5161 192.142 10.3235 192.142 9.86115C192.142 9.45662 191.874 9.22546 191.375 9.22546H190.014ZM191.414 12.9048C191.95 12.9048 192.257 12.6351 192.257 12.2113C192.257 11.7682 191.931 11.4986 191.375 11.4986H190.014V12.9048H191.414Z" fill="black"/>
<path d="M197.435 14.0606C195.632 14.0606 194.462 12.8855 194.462 11.0748C194.462 9.28325 195.671 8.08891 197.435 8.08891C199.237 8.08891 200.407 9.26398 200.407 11.0748C200.407 12.8663 199.199 14.0606 197.435 14.0606ZM197.435 12.9048C198.393 12.9048 198.988 12.2113 198.988 11.0748C198.988 9.93821 198.393 9.24472 197.435 9.24472C196.476 9.24472 195.881 9.93821 195.881 11.0748C195.881 12.2113 196.476 12.9048 197.435 12.9048Z" fill="black"/>
<path d="M208.633 13.9643L206.888 11.4215L206.102 12.1728V13.9643H204.721V8.18522H206.102V10.6124L208.461 8.18522H210.187L207.847 10.4583L210.282 13.9643H208.633Z" fill="black"/>
<path d="M215.249 8.18522H216.687L214.635 14.0413C214.213 15.2549 213.504 15.987 212.488 15.987C211.164 15.987 210.704 15.1008 210.666 14.2147L211.932 13.9835C211.951 14.4459 212.085 14.7733 212.526 14.7733C212.775 14.7733 212.967 14.6192 213.159 14.2918L210.474 8.18522H211.989L213.83 12.7507L215.249 8.18522Z" fill="black"/>
<path d="M222.708 8.18522V13.9643H221.328V9.43735H219.257V11.2867C219.257 13.3478 218.796 14.0028 217.569 14.0028C217.358 14.0028 217.128 13.9835 216.975 13.9643V12.7122H217.301C217.761 12.7122 217.895 12.5388 217.895 11.1325V8.18522H222.708Z" fill="black"/>
<path d="M227.195 10.2272C228.538 10.2272 229.362 10.9399 229.362 12.0957C229.362 13.2515 228.518 13.9643 227.195 13.9643H224.376V8.18522H225.757V10.2272H227.195ZM227.004 12.8663C227.617 12.8663 227.962 12.5966 227.962 12.0765C227.962 11.5756 227.617 11.3059 227.004 11.3059H225.757V12.8663H227.004Z" fill="black"/>
<path d="M235.307 8.18522V9.43735H233.293V13.9643H231.913V9.43735H229.88V8.18522H235.307Z" fill="black"/>
<path d="M240.407 8.18522H241.846L239.794 14.0413C239.372 15.2549 238.662 15.987 237.646 15.987C236.323 15.987 235.863 15.1008 235.824 14.2147L237.09 13.9835C237.109 14.4459 237.243 14.7733 237.684 14.7733C237.934 14.7733 238.125 14.6192 238.317 14.2918L235.633 8.18522H237.147L238.988 12.7507L240.407 8.18522Z" fill="black"/>
<path d="M246.007 8.08891C247.502 8.08891 248.48 9.26398 248.48 11.0748C248.48 12.8663 247.464 14.0606 246.007 14.0606C245.24 14.0606 244.607 13.7716 244.166 13.2323V15.8906H242.785V8.18522H244.012L244.089 9.05208C244.53 8.43565 245.201 8.08891 246.007 8.08891ZM245.585 12.9048C246.505 12.9048 247.08 12.192 247.08 11.0748C247.08 9.95747 246.505 9.24472 245.585 9.24472C244.664 9.24472 244.108 9.95747 244.108 11.0748C244.108 12.192 244.664 12.9048 245.585 12.9048Z" fill="black"/>
<path d="M253.619 8.18522H255V13.9643H253.658V10.1501L251.107 13.9643H249.727V8.18522H251.088V11.9994L253.619 8.18522Z" fill="black"/>
<path d="M132.563 20.2399V21.492H130.55V26.019H129.169V21.492H127.137V20.2399H132.563Z" fill="black"/>
<path d="M138.297 24.8246H138.527V26.019C138.431 26.0382 138.278 26.0575 138.029 26.0575C137.319 26.0575 136.955 25.7878 136.859 25.1714C136.437 25.7493 135.689 26.1153 134.845 26.1153C133.733 26.1153 132.966 25.4411 132.966 24.4201C132.966 22.9561 134.347 22.6671 135.44 22.5323C136.188 22.4359 136.667 22.3396 136.667 21.9544C136.667 21.5498 136.245 21.2801 135.555 21.2801C134.941 21.2801 134.385 21.5306 133.925 21.9929L133.1 21.126C133.772 20.4903 134.615 20.1436 135.632 20.1436C137.089 20.1436 137.952 20.8756 137.952 22.0699V24.4779C137.952 24.709 138.067 24.8246 138.297 24.8246ZM135.133 25.0173C135.958 25.0173 136.629 24.4586 136.629 23.7844V23.1872C136.399 23.3221 136.073 23.3799 135.593 23.4569C134.941 23.5725 134.308 23.6688 134.308 24.3045C134.308 24.7476 134.615 25.0173 135.133 25.0173Z" fill="black"/>
<path d="M142.822 19.4694V18.2365H144.318V19.4694H142.822ZM142.88 26.019V20.2399H144.261V26.019H142.88Z" fill="black"/>
<path d="M149.898 20.2399H151.279V26.019H149.898V23.7073H147.405V26.019H146.025V20.2399H147.405V22.4359H149.898V20.2399Z" fill="black"/>
<path d="M159.333 20.1629C160.732 20.1629 161.634 21.3187 161.634 23.1294C161.634 24.9017 160.713 26.096 159.333 26.096C158.681 26.096 158.163 25.8649 157.779 25.4025V27.9453H156.399V25.364C156.015 25.8456 155.478 26.096 154.826 26.096C153.427 26.096 152.525 24.9402 152.525 23.1294C152.525 21.3572 153.446 20.1629 154.826 20.1629C155.498 20.1629 156.015 20.394 156.399 20.8563V18.3136H157.779V20.8756C158.163 20.394 158.7 20.1629 159.333 20.1629ZM155.191 24.9595C155.977 24.9595 156.456 24.2467 156.456 23.1294C156.456 22.0122 155.977 21.2994 155.191 21.2994C154.424 21.2994 153.925 22.0122 153.925 23.1294C153.925 24.2467 154.424 24.9595 155.191 24.9595ZM158.988 24.9595C159.755 24.9595 160.234 24.2467 160.234 23.1294C160.234 22.0122 159.755 21.2994 158.988 21.2994C158.182 21.2994 157.703 22.0122 157.703 23.1294C157.703 24.2467 158.182 24.9595 158.988 24.9595Z" fill="black"/>
<path d="M165.45 26.1153C163.647 26.1153 162.477 24.9402 162.477 23.1294C162.477 21.3379 163.686 20.1436 165.45 20.1436C167.252 20.1436 168.422 21.3187 168.422 23.1294C168.422 24.9209 167.214 26.1153 165.45 26.1153ZM165.45 24.9595C166.408 24.9595 167.003 24.266 167.003 23.1294C167.003 21.9929 166.408 21.2994 165.45 21.2994C164.491 21.2994 163.896 21.9929 163.896 23.1294C163.896 24.266 164.491 24.9595 165.45 24.9595Z" fill="black"/>
<path d="M172.89 20.1436C174.386 20.1436 175.364 21.3187 175.364 23.1294C175.364 24.9209 174.347 26.1153 172.89 26.1153C172.123 26.1153 171.49 25.8263 171.049 25.287V27.9453H169.668V20.2399H170.896L170.972 21.1068C171.413 20.4903 172.084 20.1436 172.89 20.1436ZM172.468 24.9595C173.388 24.9595 173.964 24.2467 173.964 23.1294C173.964 22.0122 173.388 21.2994 172.468 21.2994C171.548 21.2994 170.991 22.0122 170.991 23.1294C170.991 24.2467 171.548 24.9595 172.468 24.9595Z" fill="black"/>
<path d="M183.724 20.2399V26.019H182.401V21.781L180.867 26.019H179.486L177.952 21.781V26.019H176.61V20.2399H178.681L180.196 24.4394L181.691 20.2399H183.724Z" fill="black"/>
<path d="M190.263 24.8246H190.493V26.019C190.397 26.0382 190.244 26.0575 189.995 26.0575C189.285 26.0575 188.921 25.7878 188.825 25.1714C188.403 25.7493 187.655 26.1153 186.811 26.1153C185.699 26.1153 184.932 25.4411 184.932 24.4201C184.932 22.9561 186.313 22.6671 187.406 22.5323C188.154 22.4359 188.633 22.3396 188.633 21.9544C188.633 21.5498 188.211 21.2801 187.521 21.2801C186.907 21.2801 186.351 21.5306 185.891 21.9929L185.066 21.126C185.738 20.4903 186.581 20.1436 187.598 20.1436C189.055 20.1436 189.918 20.8756 189.918 22.0699V24.4779C189.918 24.709 190.033 24.8246 190.263 24.8246ZM187.099 25.0173C187.924 25.0173 188.595 24.4586 188.595 23.7844V23.1872C188.365 23.3221 188.039 23.3799 187.559 23.4569C186.907 23.5725 186.274 23.6688 186.274 24.3045C186.274 24.7476 186.581 25.0173 187.099 25.0173Z" fill="black"/>
<path d="M196.879 24.7668H197.646V27.3674H196.323V26.019H191.682V20.2399H193.063V24.7668H195.498V20.2399H196.879V24.7668Z" fill="black"/>
<path d="M198.835 19.4694V18.2365H200.33V19.4694H198.835ZM198.892 26.019V20.2399H200.273V26.019H198.892Z" fill="black"/>
<path d="M204.683 19.7005C203.609 19.7005 202.919 19.1612 202.823 18.2943L203.878 18.1402C203.954 18.5832 204.261 18.8144 204.683 18.8144C205.105 18.8144 205.412 18.5832 205.488 18.1402L206.543 18.2943C206.447 19.1612 205.757 19.7005 204.683 19.7005ZM205.93 20.2399H207.31V26.019H205.968V22.2048L203.417 26.019H202.037V20.2399H203.398V24.0541L205.93 20.2399Z" fill="black"/>
<path d="M212.852 20.2399H214.233V26.019H212.852V23.7073H210.359V26.019H208.978V20.2399H210.359V22.4359H212.852V20.2399Z" fill="black"/>
<path d="M218.451 26.1153C216.649 26.1153 215.479 24.9402 215.479 23.1294C215.479 21.3379 216.687 20.1436 218.451 20.1436C220.254 20.1436 221.423 21.3187 221.423 23.1294C221.423 24.9209 220.215 26.1153 218.451 26.1153ZM218.451 24.9595C219.41 24.9595 220.004 24.266 220.004 23.1294C220.004 21.9929 219.41 21.2994 218.451 21.2994C217.492 21.2994 216.898 21.9929 216.898 23.1294C216.898 24.266 217.492 24.9595 218.451 24.9595Z" fill="black"/>
<path d="M221.673 19.4694V18.2365H223.111V19.4694H221.673ZM223.801 19.4694V18.2365H225.239V19.4694H223.801ZM222.766 26.019V20.2399H224.146V26.019H222.766Z" fill="black"/>
<path d="M133.024 32.2946V38.0736H131.643V33.5467H129.15V38.0736H127.77V32.2946H133.024Z" fill="black"/>
<path d="M137.242 38.17C135.44 38.17 134.27 36.9949 134.27 35.1841C134.27 33.3926 135.478 32.1983 137.242 32.1983C139.045 32.1983 140.215 33.3734 140.215 35.1841C140.215 36.9756 139.006 38.17 137.242 38.17ZM137.242 37.0142C138.201 37.0142 138.796 36.3207 138.796 35.1841C138.796 34.0476 138.201 33.3541 137.242 33.3541C136.284 33.3541 135.689 34.0476 135.689 35.1841C135.689 36.3207 136.284 37.0142 137.242 37.0142Z" fill="black"/>
<path d="M146.427 32.2946V38.0736H145.047V33.5467H142.976V35.396C142.976 37.4572 142.516 38.1122 141.288 38.1122C141.077 38.1122 140.847 38.0929 140.694 38.0736V36.8215H141.02C141.48 36.8215 141.614 36.6481 141.614 35.2419V32.2946H146.427Z" fill="black"/>
<path d="M148.134 31.5241V30.2912H149.63V31.5241H148.134ZM148.192 38.0736V32.2946H149.572V38.0736H148.192Z" fill="black"/>
<path d="M156.13 32.2946V33.5467H154.117V38.0736H152.736V33.5467H150.704V32.2946H156.13Z" fill="black"/>
<path d="M161.039 32.2946H162.42V38.0736H161.078V34.2595L158.527 38.0736H157.147V32.2946H158.508V36.1088L161.039 32.2946Z" fill="black"/>
<path d="M168 38.0736L166.255 35.5309L165.469 36.2821V38.0736H164.088V32.2946H165.469V34.7218L167.827 32.2946H169.553L167.214 34.5677L169.649 38.0736H168Z" fill="black"/>
<path d="M174.424 32.2946H175.805V38.0736H174.462V34.2595L171.912 38.0736H170.531V32.2946H171.893V36.1088L174.424 32.2946Z" fill="black"/>
<path d="M185.335 30.7535H186.869L184.606 36.3785C184.184 37.438 183.609 38.17 182.478 38.17C181.423 38.17 180.752 37.4187 180.714 36.417L181.883 36.128C181.902 36.6867 182.133 36.9756 182.535 36.9756C182.765 36.9756 182.976 36.8986 183.13 36.6867L179.812 30.7535H181.461L183.724 35.2034L185.335 30.7535Z" fill="black"/>
<path d="M191.241 38.0736L189.496 35.5309L188.71 36.2821V38.0736H187.329V32.2946H188.71V34.7218L191.068 32.2946H192.794L190.455 34.5677L192.89 38.0736H191.241Z" fill="black"/>
<path d="M196.994 32.1983C198.489 32.1983 199.467 33.3734 199.467 35.1841C199.467 36.9756 198.451 38.17 196.994 38.17C196.227 38.17 195.594 37.881 195.153 37.3416V40H193.772V32.2946H194.999L195.076 33.1614C195.517 32.545 196.188 32.1983 196.994 32.1983ZM196.572 37.0142C197.492 37.0142 198.067 36.3014 198.067 35.1841C198.067 34.0668 197.492 33.3541 196.572 33.3541C195.651 33.3541 195.095 34.0668 195.095 35.1841C195.095 36.3014 195.651 37.0142 196.572 37.0142Z" fill="black"/>
<path d="M205.469 36.8793H205.699V38.0736C205.604 38.0929 205.45 38.1122 205.201 38.1122C204.491 38.1122 204.127 37.8425 204.031 37.2261C203.609 37.804 202.861 38.17 202.018 38.17C200.905 38.17 200.138 37.4957 200.138 36.4748C200.138 35.0107 201.519 34.7218 202.612 34.587C203.36 34.4906 203.839 34.3943 203.839 34.009C203.839 33.6045 203.418 33.3348 202.727 33.3348C202.114 33.3348 201.557 33.5852 201.097 34.0476L200.273 33.1807C200.944 32.545 201.788 32.1983 202.804 32.1983C204.261 32.1983 205.124 32.9303 205.124 34.1246V36.5326C205.124 36.7637 205.239 36.8793 205.469 36.8793ZM202.305 37.0719C203.13 37.0719 203.801 36.5133 203.801 35.8391V35.2419C203.571 35.3768 203.245 35.4345 202.766 35.5116C202.114 35.6272 201.481 35.7235 201.481 36.3592C201.481 36.8023 201.788 37.0719 202.305 37.0719Z" fill="black"/>
<path d="M205.891 31.5241V30.2912H207.329V31.5241H205.891ZM208.02 31.5241V30.2912H209.458V31.5241H208.02ZM206.984 38.0736V32.2946H208.365V38.0736H206.984Z" fill="black"/>
<path d="M214.002 32.2946H215.383V38.0736H214.002V35.762H211.51V38.0736H210.129V32.2946H211.51V34.4906H214.002V32.2946Z" fill="black"/>
<path d="M220.925 32.2946H222.306V38.0736H220.963V34.2595L218.413 38.0736H217.032V32.2946H218.394V36.1088L220.925 32.2946Z" fill="black"/>
<path d="M40.5655 8.49494C38.4475 6.82867 35.7107 6.27323 33.1366 6.92668C29.6176 7.84151 25.61 9.44248 21.9933 12.2197C18.3767 9.44248 14.369 7.84151 10.85 6.92668C8.2434 6.27323 5.53907 6.82867 3.42118 8.49494C1.23814 10.194 0 12.7424 0 15.4869V38.2925H2.05272V15.4869C2.05272 13.3959 2.9976 11.4356 4.65933 10.1286C6.28846 8.85437 8.34119 8.42965 10.3287 8.91975C13.4892 9.73653 17.0734 11.1415 20.3316 13.5593C17.171 16.4672 14.4342 20.4205 12.8702 25.8443C12.1534 28.2946 12.1859 30.7451 12.9679 32.9995C13.9128 35.7441 16.1936 38.9787 21.6024 39.2401H22.3517C27.7605 38.946 30.0412 35.7441 30.9861 32.9995C31.7681 30.7451 31.8008 28.2946 31.0839 25.8443C29.5199 20.4205 26.783 16.4672 23.6224 13.5593C26.8808 11.1415 30.4648 9.73653 33.6254 8.91975C35.6129 8.39693 37.6656 8.85437 39.2947 10.1286C40.9565 11.4356 41.9013 13.3631 41.9013 15.4869V38.2925H43.9541V15.4869C43.9866 12.7424 42.7485 10.194 40.5655 8.49494ZM29.0963 26.465C29.6828 28.4581 29.6503 30.5491 29.0312 32.3788C27.9559 35.5154 25.5775 37.149 21.9608 37.2471C18.3441 37.149 15.9656 35.5154 14.8903 32.3788C14.2712 30.5818 14.2387 28.4581 14.8251 26.465C16.2913 21.3354 18.8979 17.6434 21.9608 14.9315C25.0235 17.6107 27.6301 21.3354 29.0963 26.465Z" fill="#F2D600"/>
<path d="M52.2629 4.80273H50.2102V38.2924H52.2629V4.80273Z" fill="#F2D600"/>
<path d="M70.8021 38.2924H68.7494C68.7494 31.4965 63.2429 26.0075 56.4983 26.0075H51.4154V23.949H56.4983C64.3507 23.9163 70.8021 30.3855 70.8021 38.2924Z" fill="#F2D600"/>
<path d="M65.1005 20.4856C60.7995 20.4856 57.2805 16.9898 57.2805 12.6441C57.2805 8.33138 60.767 4.80273 65.1005 4.80273C69.4013 4.80273 72.9203 8.29873 72.9203 12.6441C72.9203 16.957 69.4013 20.4856 65.1005 20.4856ZM65.1005 6.92647C61.9399 6.92647 59.3983 9.5076 59.3983 12.6441C59.3983 15.8134 61.9724 18.362 65.1005 18.362C68.2609 18.362 70.8024 15.7808 70.8024 12.6441C70.8024 9.47495 68.2609 6.92647 65.1005 6.92647Z" fill="#F2D600"/>
<path d="M84.1289 15.4215C79.8931 15.4215 76.4393 11.9582 76.4393 7.71078C76.4393 3.46333 79.8931 0 84.1289 0C88.3646 0 91.8187 3.46333 91.8187 7.71078C91.8187 11.9582 88.3646 15.4215 84.1289 15.4215ZM84.1289 2.05839C81.0334 2.05839 78.5246 4.57419 78.5246 7.67811C78.5246 10.782 81.0334 13.2979 84.1289 13.2979C87.2242 13.2979 89.7333 10.782 89.7333 7.67811C89.7654 4.60687 87.2242 2.05839 84.1289 2.05839Z" fill="#F2D600"/>
<path d="M95.9557 38.2929H93.903V19.7019C93.903 12.514 99.7358 6.69815 106.871 6.69815C114.039 6.69815 119.839 12.5466 119.839 19.7019V38.2929H117.786V19.7019C117.786 13.6575 112.899 8.75652 106.871 8.75652C100.843 8.75652 95.9557 13.6575 95.9557 19.7019V38.2929Z" fill="#F2D600"/>
<path d="M85.1716 23.9165H83.119V38.2927H85.1716V23.9165Z" fill="#F2D600"/>
</svg>
