<svg width="119" height="31" viewBox="0 0 119 31" fill="none" xmlns="http://www.w3.org/2000/svg">
<mask id="mask0_2433_1768" style="mask-type:luminance" maskUnits="userSpaceOnUse" x="0" y="0" width="119" height="31">
<path d="M119 0H0V31H119V0Z" fill="white"/>
</mask>
<g mask="url(#mask0_2433_1768)">
<path d="M16.3064 8.301C16.3111 5.54281 18.3374 3.19332 20.9917 2.86761C23.8289 2.51953 26.3026 4.22956 27.0454 6.95107C27.4935 8.5948 27.9702 10.2466 28.6259 11.8129C30.1969 15.5691 33.0966 17.8962 36.8729 19.1679C37.9974 19.5463 39.1542 19.8258 40.2905 20.1682C42.674 20.8875 44.2284 23.0454 44.192 25.5642C44.1571 27.9544 42.5117 30.0819 40.2026 30.723C37.2411 31.5453 34.3034 29.8225 33.4633 26.8231C33.0269 25.2648 32.5875 23.6953 31.9873 22.1968C30.4226 18.2946 27.4809 15.8636 23.5818 14.5464C22.592 14.2119 21.5816 13.9349 20.5681 13.681C18.0215 13.0423 16.3016 10.8892 16.3056 8.2995L16.3064 8.301ZM0.000664615 25.3382C-0.0460554 28.423 2.37619 30.9194 5.43827 30.9401C8.39737 30.9601 10.8513 28.5196 10.8846 25.5242C10.9179 22.4698 8.52647 20.0062 5.49607 19.9758C2.50605 19.9455 0.0473846 22.3453 0.000664615 25.3382ZM16.2834 25.2824C16.205 28.3791 18.5956 30.9002 21.6473 30.9393C24.597 30.9776 27.0754 28.5667 27.1633 25.5745C27.2512 22.5712 24.8282 20.0365 21.8097 19.9766C18.8125 19.9168 16.3594 22.2718 16.2834 25.2824ZM65.3247 2.93546H62.5636C61.9942 4.94486 61.4312 6.93271 60.8682 8.9214C60.8255 8.9126 60.7827 8.9046 60.7391 8.8958C60.1524 6.90716 59.5656 4.91932 58.9812 2.93866H56.2668C55.6911 4.95524 55.121 6.94947 54.4978 9.1313C53.8517 6.92153 53.2649 4.91373 52.6964 2.9666H49.9273C50.9321 6.31081 51.9124 9.5736 52.888 12.8212H55.6682C56.2866 10.6545 56.8916 8.5366 57.4957 6.41858C57.5425 6.41619 57.59 6.41379 57.6367 6.4114C58.252 8.5573 58.8672 10.704 59.4825 12.8483H62.3593C63.3554 9.5193 64.3317 6.25572 65.3247 2.93546ZM82.0762 22.4898C80.6968 24.4513 80.7799 27.2838 82.2797 29.1104C83.0058 29.9949 83.9267 30.5641 85.0393 30.8363C86.6475 31.2291 88.1093 30.8866 89.453 29.9286C89.5987 30.2144 89.7112 30.4356 89.8117 30.6336H91.7161V17.0524H89.0911V21.0328C85.8367 19.8848 83.5617 20.3766 82.0762 22.4898ZM89.2764 25.6863C89.2733 27.2726 88.1005 28.4421 86.5335 28.4222C85.0108 28.403 83.8729 27.2438 83.8515 25.6903C83.8301 24.1216 85.01 22.9241 86.5739 22.9273C88.1718 22.9305 89.2804 24.0625 89.2772 25.6871L89.2764 25.6863ZM81.6549 12.4723C83.6037 13.7209 86.0378 13.4184 87.6199 11.7267C88.829 10.4342 89.2566 8.8631 89.0397 7.14666C88.791 5.17877 87.8234 3.64199 85.9436 2.87639C84.1223 2.13474 82.4515 2.50197 80.9803 3.81123C80.89 3.89186 80.7609 3.92859 80.6358 3.99245C80.559 3.60367 80.4941 3.27475 80.4315 2.96101H78.2793V15.8253H80.8908V11.9446C81.2432 12.1881 81.4451 12.3366 81.6549 12.4707V12.4723ZM83.6923 10.6521C82.0208 10.6697 80.9082 9.572 80.8963 7.89629C80.8853 6.27089 81.9899 5.12129 83.5767 5.10533C85.2459 5.08856 86.3577 6.18786 86.368 7.86516C86.3783 9.5041 85.2911 10.6354 83.6923 10.6521ZM105.833 2.94105H103.752C103.655 3.32425 103.568 3.66913 103.459 4.09704C103.255 3.90224 103.119 3.76014 102.971 3.634C101.213 2.14192 98.729 2.15789 96.98 3.66833C94.9761 5.39991 94.5224 8.6268 95.995 10.9212C97.113 12.6623 98.719 13.5349 100.764 13.1333C101.72 12.9457 102.598 12.351 103.528 11.9343C103.575 12.1274 103.66 12.4787 103.753 12.8643H105.834V2.94025L105.833 2.94105ZM100.538 5.10533C102.168 5.10293 103.283 6.2685 103.251 7.9402C103.219 9.5896 102.131 10.6649 100.507 10.6513C98.897 10.6378 97.847 9.5353 97.854 7.86516C97.862 6.20782 98.93 5.10692 100.538 5.10533ZM72.2866 2.61374C69.1905 1.98944 66.3834 3.92939 65.8537 7.05884C65.3564 9.9999 67.3122 12.7462 70.1985 13.1613C72.9486 13.5565 75.7834 12.0237 76.0217 9.9927H73.3326C72.3618 11.0226 71.2145 11.0521 70.0299 10.5955C69.1549 10.2586 68.7091 9.5433 68.561 8.535H76.4398C77.0345 5.86694 75.1325 3.18853 72.2866 2.61374ZM70.9294 4.79158C72.1425 4.69259 73.0389 5.22508 73.6027 6.43774H68.827C69.1074 5.48773 69.8857 4.87701 70.9294 4.79158ZM98.104 25.6384C98.111 28.6904 100.463 30.996 103.553 30.9808C106.577 30.9657 108.942 28.609 108.92 25.6328C108.898 22.6111 106.583 20.3566 103.504 20.3582C100.42 20.3598 98.098 22.6303 98.104 25.6384ZM103.568 28.4102C102.012 28.4398 100.849 27.2766 100.831 25.6727C100.813 24.0697 101.951 22.9049 103.53 22.9113C105.074 22.9177 106.168 24.0425 106.178 25.6328C106.188 27.2063 105.084 28.3807 103.569 28.4094L103.568 28.4102ZM52.732 30.1115C54.1225 30.98 55.6476 31.1373 57.2297 30.8962C58.2551 30.7397 59.203 30.3981 59.9346 29.6045C61.0187 28.4294 60.8508 26.4934 59.4999 25.664C58.8419 25.26 58.0516 25.054 57.2994 24.8321C56.5424 24.6086 55.7537 24.4968 54.9896 24.294C54.5667 24.1815 54.1716 23.9587 54.2341 23.4151C54.2919 22.9049 54.691 22.6926 55.1234 22.6327C56.2264 22.4786 57.221 22.6431 57.7388 23.7631H60.5143C60.4842 23.0319 60.2118 22.4523 59.7739 21.9477C58.168 20.098 54.3204 19.8082 52.4525 21.3889C51.7596 21.9749 51.4073 22.7157 51.4175 23.633C51.4326 24.951 52.0154 25.842 53.3837 26.3138C54.3672 26.6523 55.4116 26.808 56.426 27.0578C56.9106 27.1768 57.4451 27.2239 57.6945 27.7636C57.7238 28.3679 57.3342 28.589 56.8639 28.6769C55.7513 28.8852 54.7108 28.8062 53.9918 27.7612H51.2125C51.4563 28.918 51.8744 29.5758 52.732 30.1115ZM110.868 29.9231C112.204 30.8882 113.726 31.0942 115.314 30.9098C116.336 30.7908 117.31 30.505 118.094 29.7746C119.505 28.4605 119.239 26.2787 117.527 25.4149C116.979 25.1387 116.364 24.9838 115.765 24.8273C115.001 24.6269 114.208 24.5255 113.456 24.2916C113.097 24.1799 112.801 23.8621 112.513 23.6633C113.072 22.0834 114.856 22.212 116.202 23.7504H118.83C118.785 22.8091 118.418 22.093 117.67 21.4567C115.987 20.0245 112.55 19.9663 110.828 21.341C109.297 22.5624 109.415 24.9942 111.108 25.9689C111.732 26.3274 112.467 26.5046 113.17 26.701C113.847 26.891 114.554 26.9772 115.237 27.1536C115.643 27.2582 116.076 27.3987 116.067 27.96C115.299 29.1279 113.517 29.0193 112.296 27.7332H109.569C109.703 28.708 110.153 29.4074 110.868 29.9231ZM70.5453 26.3745C70.5762 28.9531 72.0411 30.6008 74.5687 30.9481C77.2111 31.3113 79.6238 29.7506 79.8289 27.3013C80.0111 25.1235 79.8669 22.9185 79.8669 20.7015H77.219C77.219 21.0328 77.219 21.2875 77.219 21.5422C77.2158 23.1692 77.2412 24.797 77.1984 26.4224C77.1667 27.6342 76.4105 28.3807 75.3012 28.4094C74.1467 28.4397 73.3635 27.6989 73.2661 26.4607C73.2344 26.0631 73.2479 25.6624 73.2471 25.2624C73.2455 23.7535 73.2471 22.2439 73.2471 20.6808H70.5414C70.5414 22.6119 70.5232 24.4936 70.5461 26.3753L70.5453 26.3745ZM117.633 2.93866H114.883C114.075 5.01272 113.266 7.08998 112.384 9.3548C111.455 7.09876 110.595 5.01272 109.753 2.9658H107.014C108.386 6.30682 109.722 9.5576 111.051 12.7949C110.669 13.8175 110.304 14.7923 109.911 15.8413H112.599C114.269 11.5614 115.939 7.28318 117.633 2.94025V2.93866ZM63.57 24.9071C63.5716 25.5634 63.5557 26.2204 63.5819 26.8758C63.6603 28.811 64.7261 30.2112 66.5117 30.5673C67.3217 30.7286 68.1769 30.6623 69.0464 30.7006V28.2505C68.5269 28.2138 68.0502 28.1995 67.5775 28.1436C66.9163 28.0653 66.389 27.6829 66.3501 27.0315C66.2702 25.6831 66.3256 24.3259 66.3256 22.8993H68.9949V20.6393H66.2369V17.8882H63.5526V20.672H61.4637V22.9249H63.5692C63.5692 23.6625 63.5684 24.2852 63.5692 24.9079L63.57 24.9071ZM90.8087 12.834H93.3917V0H90.8087V12.834ZM96.565 20.6951H93.9911V30.6184H96.565V20.6951ZM94.0117 16.8248V19.2374H96.545V16.8248H94.0117Z" fill="black"/>
</g>
</svg>
